<?xml version="1.0" encoding="UTF-8"?>
<svg width="424px" height="538px" viewBox="0 0 424 538" version="1.1" xmlns="http://www.w3.org/2000/svg" xmlns:xlink="http://www.w3.org/1999/xlink">
    <!-- Generator: Sketch 53.2 (72643) - https://sketchapp.com -->
    <title>01_segmentace_EU_obrance</title>
    <desc>Created with Sketch.</desc>
    <g id="01_segmentace_EU_obrance" stroke="none" stroke-width="1" fill="none" fill-rule="evenodd">
        <g id="obrance" transform="translate(21.000000, 7.000000)">
            <g id="Group" transform="translate(0.000000, 322.621899)" fill-rule="nonzero">
                <path d="M327.940022,63.438 L267.628022,55.367 L263.463022,65 C246.237022,105.066 199.793022,123.585 159.727022,106.359 C141.156022,98.375 126.360022,83.571 118.368022,65 L114.203022,55.367 L53.8910221,63.438 C28.0390221,66.874 8.71402213,88.908 8.67902213,114.985 L8.67902213,208.273 L373.154022,208.273 L373.154022,114.985 C373.118022,88.908 353.792022,66.874 327.940022,63.438 Z" id="Path" fill="#282726"></path>
                <path d="M327.940022,63.438 L267.628022,55.367 L263.463022,65 C246.237022,105.066 199.793022,123.585 159.727022,106.359 C141.156022,98.375 126.360022,83.571 118.368022,65 L114.203022,55.367 L53.8910221,63.438 C28.0390221,66.874 8.71402213,88.908 8.67902213,114.985 L8.67902213,208.273 L373.154022,208.273 L373.154022,114.985 C373.118022,88.908 353.792022,66.874 327.940022,63.438 Z" id="Path" fill="#282726"></path>
                <path d="M190.915022,112.815 C222.485022,112.832 251.027022,94.019 263.463022,64.999 L267.628022,55.366 L258.082022,54.064 C249.387022,52.927 242.904022,45.482 242.982022,36.708 L242.982022,4.97379915e-14 L138.847022,4.97379915e-14 L138.847022,37.228 C138.925022,46.001 132.443022,53.447 123.747022,54.584 L114.201022,55.886 L118.366022,65.519 C130.959022,94.34 159.466022,112.92 190.915022,112.815 Z" id="Path" fill="#FEDAC6"></path>
                <path d="M244.024022,42.611 C243.330022,40.78 242.974022,38.836 242.983022,36.884 L242.983022,0.003 L138.847022,0.003 L138.847022,37.231 C138.856022,39.184 138.500022,41.127 137.806022,42.958 C171.251022,59.767 210.692022,59.637 244.024022,42.611 Z" id="Path" fill="#F5C4B0"></path>
                <path d="M43.3900221,66.041 C22.6410221,73.374 8.73902213,92.969 8.67802213,114.985 L8.67802213,208.273 L43.3900221,208.273 L43.3900221,66.041 Z" id="Path" fill-opacity="0.15" fill="#000000"></path>
                <path d="M17.3560221,208.273 L1.42108547e-14,208.273 L2.21251659e-05,115.332 C-0.0259778748,84.725 22.8660221,58.778 53.2480221,55.003 L122.585022,45.64 C126.959022,45.076 130.204022,41.344 130.170022,36.962 L130.170022,8.68 L147.526996,8.68 L147.526022,36.883 C147.639022,49.952 137.902022,61.147 124.868022,62.839 L55.4790221,72.211 C33.6800221,74.927 17.3310221,93.446 17.3480221,115.323 L17.3480221,208.273 L17.3560221,208.273 Z" id="Path" fill="#000000"></path>
                <path d="M381.830022,208.273 L364.474022,208.273 L364.474022,115.332 C364.491022,93.455 348.142022,74.927 326.438022,72.22 L256.919022,62.839 C243.928022,61.147 234.191022,49.952 234.304022,36.805 L234.303049,8.68 L251.660022,8.68 L251.660022,36.883 C251.617022,41.343 254.862022,45.066 259.210022,45.639 L328.668022,55.011 C358.963022,58.786 381.855022,84.724 381.829022,115.34 L381.830022,208.273 L381.830022,208.273 Z" id="Path" fill="#000000"></path>
                <path d="M190.958022,121.493 C190.923022,121.493 190.889022,121.493 190.863022,121.493 C155.787022,121.493 124.208022,100.666 110.392022,68.419 L104.838022,55.498 L120.788022,48.651 L126.342022,61.581 C137.424022,87.433 162.746022,104.138 190.871022,104.138 C190.897022,104.138 190.923022,104.138 190.949022,104.138 C219.074022,104.138 244.405022,87.433 255.496022,61.581 L261.050022,48.651 L277.000022,55.498 L271.446022,68.428 C257.623022,100.666 226.026022,121.493 190.958022,121.493 Z" id="Path" fill="#000000"></path>
            </g>
            <g id="Group-7" transform="translate(62.153532, 0.000000)">
                <g id="Group-3" transform="translate(172.846468, 429.000000)">
                    <g id="Group-2">
                        <circle id="Oval" stroke="#000000" stroke-width="15" fill="#BD2222" cx="42" cy="42" r="42"></circle>
                        <circle id="Oval" fill="#1D15F2" cx="42" cy="42" r="22.7"></circle>
                    </g>
                    <path d="M55.8,31.0537208 L27,53.8537208" id="Line-2" stroke="#BD2222" stroke-width="15" stroke-linecap="square"></path>
                </g>
                <g id="Group-5">
                    <g id="015-man-11" transform="translate(0.846468, 111.021899)" fill-rule="nonzero">
                        <g id="Group" transform="translate(8.000000, 9.000000)" fill="#FEDAC6">
                            <path d="M213.722,25.618 L213.722,146.182 C213.833,158.707 209.351,170.832 201.112,180.264 L164.304,221.929 C157.846,229.282 148.533,233.508 138.743,233.517 L101.424,233.517 C91.634,233.508 82.321,229.282 75.863,221.929 L39.055,179.838 C30.816,170.406 26.334,158.281 26.445,145.756 L26.445,25.618 C26.454,11.5 37.896,0.057 52.015,0.065 C53.557,0.065 55.091,0.201 56.607,0.483 L71.433,3.124 C103.657,9.003 136.682,9.003 168.906,3.124 L183.732,0.483 C197.637,-1.962 210.887,7.325 213.34,21.23 C213.595,22.678 213.722,24.152 213.722,25.618 Z" id="Path"></path>
                            <path d="M213.722,63.108 L205.202,63.108 L205.202,114.23 L213.722,114.23 C227.84,114.23 239.283,102.787 239.283,88.669 C239.283,74.551 227.841,63.108 213.722,63.108 Z" id="Path"></path>
                            <path d="M0.712,88.669 C0.712,102.787 12.155,114.23 26.273,114.23 L34.793,114.23 L34.793,63.108 L26.273,63.108 C12.155,63.108 0.712,74.559 0.712,88.669 Z" id="Path"></path>
                        </g>
                        <path d="M187.641,174.353 L68.355,174.353 L68.355,165.833 C68.355,147.011 83.615,131.751 102.437,131.751 L153.559,131.751 C172.381,131.751 187.641,147.011 187.641,165.833 L187.641,174.353 L187.641,174.353 Z" id="Path" fill="#806E55"></path>
                        <path d="M68.355,10.164 L64.436,9.482 C50.548,6.943 37.23,16.136 34.691,30.025 C34.41,31.542 34.274,33.075 34.274,34.617 L34.274,155.181 C34.163,167.706 38.645,179.831 46.884,189.263 L68.355,213.291 L68.355,10.164 L68.355,10.164 Z" id="Path" fill="#F5C4B0"></path>
                        <path d="M221.722,131.759 L213.202,131.759 L213.202,114.718 L221.722,114.718 C231.12,114.718 238.763,107.075 238.763,97.677 C238.763,88.279 231.12,80.636 221.722,80.636 L213.202,80.636 L213.202,63.595 L221.722,63.595 C240.518,63.595 255.804,78.881 255.804,97.677 C255.804,116.473 240.518,131.759 221.722,131.759 Z" id="Path" fill="#000000"></path>
                        <path d="M42.794,131.759 L34.274,131.759 C15.478,131.759 0.192,116.473 0.192,97.677 C0.192,78.881 15.478,63.595 34.274,63.595 L42.794,63.595 L42.794,80.636 L34.274,80.636 C24.876,80.636 17.233,88.279 17.233,97.677 C17.233,107.075 24.876,114.718 34.274,114.718 L42.794,114.718 L42.794,131.759 Z" id="Path" fill="#000000"></path>
                        <path d="M136.518,140.279 L110.957,140.279 C108.512,140.279 106.186,139.231 104.567,137.399 C102.948,135.567 102.198,133.13 102.497,130.702 L111.017,62.539 L127.921,64.652 L120.602,123.238 L136.51,123.238 L136.51,140.279 L136.518,140.279 Z" id="Path" fill="#000000"></path>
                        <path d="M146.76,251.045 L109.424,251.045 C97.172,251.028 85.533,245.745 77.464,236.56 L40.647,194.461 C31.027,183.444 25.804,169.317 25.932,154.696 L25.932,34.618 C25.932,25.51 29.485,16.955 35.918,10.522 C42.351,4.089 50.905,0.553 60.005,0.553 C60.014,0.553 60.014,0.553 60.022,0.553 C62.075,0.553 64.129,0.732 66.157,1.107 L80.931,3.74 C112.295,9.449 144.059,9.466 175.38,3.74 L190.24,1.09 C201.297115,-0.867943935 212.028552,2.7450113 219.591988,9.89432523 C224.733788,14.754596 224.679466,16.6733103 226,24.1630806 C226.227333,25.4697473 230.9115,67.8475067 230.9115,69.8035233 C230.9115,93.2644122 230.691667,121.721238 230.252,155.174 C230.388,169.71 225.157,183.837 215.529,194.854 L178.695,236.561 M60.005,17.594 C55.447,17.594 51.178,19.366 47.957,22.578 C44.736,25.79 42.964,30.076 42.964,34.626 L42.964,154.764 C42.87,165.287 46.602,175.375 53.47,183.248 L90.27,225.33 C95.101,230.834 102.088,234.004 109.432,234.012 L146.743,234.012 C154.062,234.003 161.057,230.834 165.905,225.313 L202.722,183.631 C209.564,175.792 213.296,165.704 213.194,155.267 L213.194,34.618 C213.194,33.63 213.1,32.65 212.938,31.678 C211.311,22.459 202.458,16.256 193.213,17.875 L178.405,20.516 C145.082,26.591 111.264,26.583 77.898,20.516 L63.115,17.875 C62.058,17.679 61.036,17.594 60.005,17.594 C60.014,17.594 60.005,17.594 60.005,17.594 Z" id="Shape" fill="#000000"></path>
                        <circle id="Oval" fill="#000000" cx="76.918" cy="99.637" r="17.041"></circle>
                        <circle id="Oval" fill="#000000" cx="170.643" cy="99.637" r="17.041"></circle>
                        <path d="M187.641,182.882 L68.355,182.882 C63.652,182.882 59.835,179.065 59.835,174.362 L59.835,165.842 C59.835,142.351 78.946,123.24 102.437,123.24 L153.559,123.24 C177.05,123.24 196.161,142.351 196.161,165.842 L196.161,174.362 C196.161,179.064 192.353,182.882 187.641,182.882 Z M76.875,165.841 L179.12,165.841 C179.12,151.748 167.652,140.28 153.559,140.28 L102.437,140.28 C88.344,140.279 76.875,151.739 76.875,165.841 Z" id="Shape" fill="#000000"></path>
                        <rect id="Rectangle" fill="#000000" x="111" y="199.922" width="34.082" height="17.041"></rect>
                    </g>
                    <g id="Group-6" transform="translate(30.846468, 0.000000)">
                        <g id="cap2"></g>
                    </g>
                    <path d="M115.74096,17 C86.8338441,26.152 67.9792885,36.408 59.1772936,47.768 C53.0362436,55.6937406 41.9925015,70.5622453 37.850997,90.369 C35.8906682,99.7442769 36.9605614,116.643444 41.0606767,141.0665 C45.2647748,172.021294 48.9703137,192.091584 52.1772936,201.277371 C55.3842734,210.463158 59.0225098,211.427722 63.0920026,204.171064 L127.99821,185.680515 L198.391538,204.171064 C202.15598,209.325927 206.084565,205.768906 210.177294,193.5 C214.270022,181.231094 217.343043,163.895094 219.396359,141.492 C223.39463,106.958277 220.321608,81.4602767 210.177294,64.998 C203.644278,54.3961696 193.685607,40.6843948 177.066172,30.728 C170.941613,27.0588904 159.674574,22.7980571 143.265057,17.9455 L115.74096,17 Z" id="Path-11" fill="#292903"></path>
                    <path d="M115.74096,17.9455 C98.8769314,39.3938057 88.0649707,56.7604375 83.3050784,70.0453955 C78.545186,83.3303536 78.545186,101.012152 83.3050784,123.090791 C103.807297,118.317597 119.26643,115.931 129.682478,115.931 C140.098526,115.931 155.000319,118.317597 174.387858,123.090791 C178.03847,99.8828115 177.957172,82.201013 174.143965,70.0453955 C170.330757,57.8897781 159.318523,40.2079796 141.107263,17 L115.74096,17.9455 Z" id="Path-10" fill="#3E3A08"></path>
                    <path d="M224.069891,85.639798 C221.579045,73.91018 215.963321,62.5881549 208.264344,53.621111 C197.62164,39.9441046 183.854058,28.84852 168.410815,21.4665596 C161.119431,18.024664 152.514692,15.6243947 143.321208,14.3563279 C143.140055,6.38562217 136.641213,4 128.625219,4 C120.654513,4 114.110383,6.38562217 113.883942,14.3563279 C104.735746,15.6243947 96.1310069,18.024664 88.7943346,21.5118477 C73.3963804,28.84852 59.6287979,39.9893927 48.9860943,53.621111 C41.2871172,62.5428668 35.6713927,73.91018 33.1805472,85.639798 C29.3310587,101.581209 31.4143113,118.97184 33.089971,132.920575 C34.2221735,148.726122 39.4303051,172.638239 43.1892174,190.119446 L44.0044032,193.968934 L44.0496913,194.059511 C45.4536224,199.629947 48.8049419,203.977605 53.5601924,206.332586 C55.9151736,207.510076 58.5418835,208.098822 61.2138814,208.098822 C63.7047269,208.098822 66.2408606,207.600653 68.6411299,206.559026 C87.3904035,198.543033 112.932892,190.02887 128.330846,190.02887 C147.170696,190.02887 177.966604,202.030216 188.065851,206.015569 C193.500423,208.189398 199.161436,208.053534 203.961974,205.653264 C208.490784,203.388859 211.751527,199.31293 213.155459,194.150087 L213.200747,193.968934 C213.744204,191.296937 214.378237,188.443786 215.012271,185.454772 C218.590031,168.517022 223.073553,147.458055 224.160467,132.965863 C225.836127,118.97184 227.919379,101.581209 224.069891,85.639798 Z M128.647863,6.79321508 C132.633216,6.79321508 135.984535,9.78222971 136.482704,13.6317183 C133.810707,13.4505658 131.09342,13.3147015 128.330846,13.3147015 C125.794713,13.3147015 123.303867,13.4052777 120.813022,13.5864302 C121.356479,9.78222971 124.66251,6.79321508 128.647863,6.79321508 Z M108.675811,30.8411964 C110.985504,27.7616056 115.921907,23.1875075 118.729769,20.6513738 C121.899936,20.3343571 125.070103,20.1984928 128.285558,20.1984928 C131.727454,20.1984928 135.16935,20.3796452 138.520669,20.6966619 C141.373819,23.2327956 146.219646,27.7616056 148.529339,30.8411964 L148.574627,30.8864845 C158.220993,43.2954241 168.54668,58.1046329 172.079151,73.9554681 L172.12444,74.1366205 C175.883352,87.2248816 173.437794,112.903235 172.396168,121.82499 C156.817062,117.930214 140.513345,114.805335 128.285558,114.805335 C116.374788,114.805335 100.297512,117.884926 84.8089818,121.779702 C83.7673555,112.857946 81.321798,87.1795935 85.0807104,74.1366205 L85.1259985,73.9554681 C88.6584703,58.1046329 99.0294453,43.2954241 108.630523,30.8864845 L108.675811,30.8411964 Z M39.8831861,132.422406 L39.8831861,132.241253 C38.2981026,118.7454 36.260138,101.988802 39.837898,87.1795935 L39.837898,87.0890173 C42.102303,76.4463136 47.1745702,66.1206267 54.1942258,57.9687686 L54.284802,57.8329043 C64.2934722,44.9710838 77.245869,34.5095326 91.692773,27.6257413 C96.2668712,25.4519125 101.429715,23.7309647 106.909575,22.5081859 C105.505644,23.9574052 104.192289,25.4066244 103.241239,26.7199793 C93.1419923,39.672376 82.3181362,55.2514826 78.4686477,72.3703846 C74.2115662,87.3154578 77.1100047,115.212928 78.1063429,123.545938 C62.3007958,127.757732 47.8991799,132.512982 40.1096266,135.18498 C40.0190504,134.23393 39.9284742,133.328168 39.8831861,132.422406 Z M208.35492,183.960264 C207.720887,186.949279 207.132141,189.757141 206.588684,192.383851 C205.682922,195.599306 203.690246,198.13544 200.97296,199.494083 C197.938657,201.033878 194.270321,201.079166 190.601985,199.629947 C162.251634,188.57965 141.917276,183.190367 128.376134,183.190367 C107.724761,183.190367 75.434345,196.278628 66.0597082,200.26398 C62.844253,201.622623 59.4929336,201.622623 56.6850714,200.218692 C53.7866329,198.769473 51.7033803,196.006899 50.7976183,192.429139 L49.9824325,188.670227 C47.1292821,175.446101 43.0986412,156.787404 41.0606767,142.023483 C55.7340212,136.996504 102.788358,121.59855 128.421423,121.59855 C154.552657,121.59855 201.697569,136.996504 216.370914,142.023483 C214.514102,154.97588 211.162782,170.736139 208.35492,183.960264 Z M217.321964,132.195965 L217.321964,132.377118 C217.276676,133.28288 217.1861,134.188642 217.095523,135.139692 C209.30597,132.467694 194.904354,127.757732 179.098807,123.545938 C180.095145,115.258216 182.993584,87.3154578 178.736502,72.3703846 C174.887014,55.2514826 164.063158,39.7176641 153.963911,26.7199793 C153.012861,25.4519125 151.699506,24.0026933 150.340863,22.553474 C155.866011,23.7762528 160.983567,25.4972006 165.512377,27.6257413 C180.004569,34.5095326 192.956966,44.9710838 202.965636,57.8329043 L203.056212,57.9687686 C210.03058,66.0753386 215.148135,76.4010255 217.41254,87.0890173 L217.41254,87.1795935 C220.9903,101.988802 218.952335,118.7454 217.321964,132.195965 Z" id="Shape" stroke="#000000" stroke-width="6" fill="#000000" fill-rule="nonzero"></path>
                </g>
            </g>
        </g>
    </g>
</svg>