<?xml version="1.0" encoding="UTF-8"?>
<svg width="424px" height="538px" viewBox="0 0 424 538" version="1.1" xmlns="http://www.w3.org/2000/svg" xmlns:xlink="http://www.w3.org/1999/xlink">
    <!-- Generator: Sketch 53.2 (72643) - https://sketchapp.com -->
    <title>02_segmentace_EU_rezignovany_pesimista</title>
    <desc>Created with Sketch.</desc>
    <g id="02_segmentace_EU_rezignovany_pesimista" stroke="none" stroke-width="1" fill="none" fill-rule="evenodd">
        <g id="rezipesimista" transform="translate(24.000000, 26.000000)">
            <path d="M136.8,328.875 L130.185721,345 C148.967111,366.333333 168.210829,377 187.916875,377 C207.622921,377 227.561963,366.333333 247.734,345 L239.2,328.875 L136.8,328.875 Z" id="Path-2" fill="#FEDAC6"></path>
            <g id="014-man-12" fill-rule="nonzero">
                <path d="M307.979,350.464 L258.315,343.893 C254.466,343.449 250.814,341.973 247.734,339.626 C227.813373,361.265632 207.874331,372.056965 187.916875,372 C167.959418,371.943035 148.076127,361.038035 128.267,339.285 C125.118,341.734 121.381,343.321 117.43,343.893 L67.766,350.464 C33.957,355.115 8.784,384.008 8.801,418.133 L8.80099139,512 L367.201,512 L367.201,418.133 C367.2,383.923 341.882,354.995 307.979,350.464 Z" id="Path" fill="#BDAF90"></path>
                <path d="M239.2,328.875 L239.2,281.6 L136.8,281.6 L136.8,328.875 C175.2,345.515 200.8,345.515 239.2,328.875 Z" id="Path" fill="#F5C4B0"></path>
                <path d="M102.667,252.501 C97.035,240.213 94.125,226.85 94.134,213.333 L94.134,102.4 L94.134,102.4 C94.134,83.55 109.417,68.267 128.267,68.267 L145.334,68.267 L148.235,72.534 C157.101,85.837 172.017,93.842 188,93.867 L188,93.867 C203.983,93.841 218.899,85.837 227.765,72.534 L230.666,68.267 L247.733,68.267 C266.583,68.267 281.866,83.55 281.866,102.4 L281.866,102.4 L281.866,213.333 C281.866,265.173 239.839,307.2 187.999,307.2 L187.999,307.2 C157.441,307.209 128.786,292.343 111.199,267.349" id="Path" fill="#FEDAC6"></path>
                <path d="M128.267,184.747 L128.267,68.267 C109.417,68.267 94.134,83.55 94.134,102.4 L94.134,213.333 C94.125,226.85 97.035,240.213 102.667,252.501 L111.2,267.349 C125.886,288.162 148.405,302.122 173.579,306.005 L151.734,269.482 C136.373,243.891 128.258,214.596 128.267,184.747 Z" id="Path" fill="#F5C4B0"></path>
                <path d="M94.133,145.067 L94.133,102.4 C94.133,83.55 109.416,68.267 128.266,68.267 L145.333,68.267 L148.234,72.534 C162.783,94.499 192.385,100.506 214.342,85.957 C219.667,82.424 224.232,77.867 227.765,72.534 L230.666,68.267 L247.733,68.267 C266.583,68.267 281.866,83.55 281.866,102.4 L281.866,145.067 L290.399,145.067 C296.722,145.127 302.806,147.533 307.466,151.808 L310.965,113.493 C313.807,82.048 294.718,52.761 264.8,42.666 C248.681,21.18 223.396,8.533 196.533,8.533 L179.466,8.533 C152.603,8.533 127.319,21.179 111.199,42.666 C81.213,52.693 62.047,82.005 64.863,113.493 L68.532,151.808 C73.191,147.533 79.275,145.126 85.599,145.067 L94.133,145.067 Z" id="Path" fill="#9F9F9F"></path>
                <path d="M290.4,145.067 L281.867,145.067 L281.867,196.267 L290.4,196.267 C304.54,196.267 316,184.807 316,170.667 C316,156.527 304.54,145.067 290.4,145.067 Z" id="Path" fill="#FEDAC6"></path>
                <path d="M60,170.667 C60,184.807 71.46,196.267 85.6,196.267 L94.133,196.267 L94.133,145.067 L85.6,145.067 C71.46,145.067 60,156.527 60,170.667 Z" id="Path" fill="#F5C4B0"></path>
                <path d="M196.533,230.4 L162.4,230.4 C159.601,230.4 156.981,229.026 155.386,226.731 C153.79,224.427 153.432,221.492 154.405,218.872 L180.005,150.605 L195.988,156.595 L174.714,213.333 L196.534,213.333 L196.534,230.4 L196.533,230.4 Z" id="Path" fill="#000000"></path>
                <path d="M290.4,204.8 L281.867,204.8 L281.867,187.733 L290.4,187.733 C299.812,187.733 307.467,180.079 307.467,170.666 C307.467,161.254 299.813,153.599 290.4,153.599 L281.867,153.599 L281.867,136.532 L290.4,136.532 C309.225,136.532 324.533,151.841 324.533,170.665 C324.533,189.489 309.225,204.8 290.4,204.8 Z" id="Path" fill="#000000"></path>
                <path d="M94.133,204.8 L85.6,204.8 C66.775,204.8 51.467,189.491 51.467,170.667 C51.467,151.843 66.776,136.534 85.6,136.534 L94.133,136.534 L94.133,153.6 L85.6,153.6 C76.188,153.6 68.533,161.254 68.533,170.667 C68.533,180.079 76.187,187.734 85.6,187.734 L94.133,187.734 L94.133,204.8 L94.133,204.8 Z" id="Path" fill="#000000"></path>
                <circle id="Oval" fill="#000000" cx="136.8" cy="170.667" r="17.067"></circle>
                <circle id="Oval" fill="#000000" cx="230.667" cy="170.667" r="17.067"></circle>
                <path d="M188.712439,315.1355 C155.423439,315.1355 124.123439,298.8885 104.966439,271.6585 C99.6049199,262.821167 96.4875866,257.4025 95.614439,255.4025 C94.9533625,253.888262 100.280031,252.148288 103.404439,250.4025 C106.470092,248.689542 107.290699,246.942474 111.161439,248.3455 C113.003253,251.716833 115.59192,256.216833 118.927439,261.8455 C134.876439,284.5275 160.971439,298.0695 188.713439,298.0695 C188.722439,298.0695 188.722439,298.0695 188.730439,298.0695 C235.783439,298.0695 274.063439,259.7885 274.063439,212.7365 L274.063439,101.8025 C274.063439,87.6885 262.577439,76.2025 248.463439,76.2025 L235.910439,76.2025 L235.552439,76.7315 C225.124439,92.3735 207.614439,101.7765 188.738439,101.8025 C169.837439,101.7765 152.318439,92.3815 141.856439,76.6635 L141.557439,76.2025 L129.004439,76.2025 C114.890439,76.2025 103.404439,87.6885 103.404439,101.8025 L103.404439,212.7355 C103.395439,224.9465 106.075439,237.2605 111.161439,248.3455 C100.818772,253.084167 95.647439,255.4535 95.647439,255.4535 C89.546439,242.1505 86.329439,227.3785 86.337439,212.7355 L86.337439,101.8025 C86.337439,78.2765 105.477439,59.1355 129.004439,59.1355 L146.071439,59.1355 C148.896439,59.1355 151.541439,60.5345 153.128439,62.8735 L156.029439,67.1405 C163.368439,78.1655 175.587439,84.7195 188.746439,84.7365 C201.887439,84.7195 214.099439,78.1575 221.403439,67.2005 L224.347439,62.8745 C225.934439,60.5365 228.580439,59.1365 231.404439,59.1365 L248.471439,59.1365 C271.997439,59.1365 291.138439,78.2765 291.138439,101.8035 L291.138439,212.7365 C291.138439,269.2015 245.203439,315.1365 188.738439,315.1365 C188.729439,315.1355 188.721439,315.1355 188.712439,315.1355 Z" id="Path" fill="#000000"></path>
                <path d="M60.034,154.377 L56.365,114.27 C53.259,79.556 73.56,47.539 105.978,35.456 C123.693,13.21 150.957,0 179.467,0 L196.534,0 C225.044,0 252.308,13.21 270.015,35.456 C302.442,47.539 322.742,79.556 319.628,114.253 L315.959,154.377 L298.961,152.824 L302.63,112.717 C305.113,85.06 288.439,59.571 262.088,50.756 C260.45,50.21 259.016,49.169 257.975,47.786 C243.545,28.552 220.573,17.066 196.535,17.066 L179.468,17.066 C155.421,17.066 132.458,28.552 118.028,47.786 C116.987,49.168 115.553,50.209 113.915,50.756 C87.564,59.571 70.89,85.06 73.373,112.734 L77.042,152.824 L60.034,154.377 Z" id="Path" fill="#000000"></path>
                <polygon id="Rectangle" fill="#000000" points="119.733 119.467 187.185721 129.467 256.266 119.467 256.266 136.534 187.185721 146.534 119.733 136.534"></polygon>
                <path d="M17.333,512 L0.267,512 L0.267,418.133 C0.267,379.818 28.905,347.093 66.895,342.007 L116.568,335.428 C123.207,334.523 128.259,328.763 128.276,322.031 L128.276,290.133 L145.343,290.133 L145.343,322.048 C145.309,337.271 133.917,350.293 118.847,352.35 L69.149,358.929 C39.607,362.871 17.335,388.326 17.335,418.133 L17.335,512 L17.333,512 Z" id="Path" fill="#000000"></path>
                <path d="M375.733,512 L358.666,512 L358.666,418.133 C358.666,388.326 336.394,362.871 306.843,358.929 L257.205,352.35 C242.092,350.293 230.709,337.272 230.675,322.065 L230.675,290.133 L247.742,290.133 L247.742,322.048 C247.759,328.764 252.802,334.524 259.475,335.428 L309.096,342.007 C347.095,347.084 375.733,379.818 375.733,418.133 L375.733,512 L375.733,512 Z" id="Path" fill="#000000"></path>
            </g>
            <path d="M43.6820315,512 L39.4338764,367 C53.1225154,359.242819 64.2445566,354.555319 72.8,352.9375 C81.3554434,351.319681 95.02211,351.319681 113.8,352.9375 L189.185721,432.46875 L256.266,347 C283.066884,348.681465 301.392989,350.660632 311.244314,352.9375 C321.095639,355.214368 331.614201,359.901868 342.8,367 L334.30369,512 L43.6820315,512 Z" id="Path-9" fill="#454736"></path>
            <g id="Group-10" transform="translate(35.185721, 341.000000)" stroke="#000000" stroke-width="14">
                <g id="Group-9" transform="translate(37.614279, 90.000000)">
                    <path d="M-1.42108547e-14,0 C12.9998662,1.33333333 26.2553662,2 39.7665,2 C53.2776338,2 67.0444671,1.33333333 81.067,0 L81.067,54 C67.5558333,64.6666667 54.0446667,70 40.5335,70 C27.0223333,70 13.5111667,64.6666667 -1.42108547e-14,54 L-1.42108547e-14,0 Z" id="Path-7"></path>
                    <path d="M4.2665,22 C17.3857213,24 28.4195607,24 38.3857213,24 C52.5088505,24 64.8024434,23.3333333 75.2665,22" id="Path-8"></path>
                </g>
                <path d="M0,18.083 C4.16614376,42.7433316 6.74856998,64.9298316 7.74727866,84.6425 C8.74598734,104.355168 8.74598734,133.141002 7.74727866,171" id="Path-3"></path>
                <path d="M299.117968,18.083 C303.284112,42.7433316 305.866538,64.9298316 306.865247,84.6425 C307.863956,104.355168 307.863956,133.141002 306.865247,171" id="Path-3" transform="translate(303.366124, 94.541500) scale(-1, 1) translate(-303.366124, -94.541500) "></path>
                <g id="Group-8" transform="translate(76.000000, 0.000000)">
                    <polyline id="Path-4" points="0 6 76.7311535 94.5415 151.7665 2.13162821e-14"></polyline>
                    <path d="M77.7741393,94.5415 L77.7741393,171" id="Path-5"></path>
                </g>
                <g id="Group-9" transform="translate(188.000000, 90.000000)">
                    <path d="M-1.42108547e-14,0 C12.9998662,1.33333333 26.2553662,2 39.7665,2 C53.2776338,2 67.0444671,1.33333333 81.067,0 L81.067,54 C67.5558333,64.6666667 54.0446667,70 40.5335,70 C27.0223333,70 13.5111667,64.6666667 -1.42108547e-14,54 L-1.42108547e-14,0 Z" id="Path-7"></path>
                    <path d="M4.2665,22 C17.3857213,24 28.4195607,24 38.3857213,24 C52.5088505,24 64.8024434,23.3333333 75.2665,22" id="Path-8"></path>
                </g>
            </g>
            <path d="M184.688721,268.352 C184.679721,268.352 184.671721,268.352 184.662721,268.352 L178.185721,268.352 L178.185721,251.285 C188.03335,246.193667 194.761924,243.648 198.371443,243.648 C203.785721,243.648 209.371443,243.648 217.037721,243.648 L224.674721,258.914 C212.327721,265.092 198.503721,268.352 184.688721,268.352 Z" id="Path" fill="#000000" fill-rule="nonzero" transform="translate(201.430221, 256.000000) scale(1, -1) translate(-201.430221, -256.000000) "></path>
            <path d="M127.225861,343.5 C146.532434,362.5 166.443768,372 186.959861,372 C207.475954,372 226.74738,362.5 244.774139,343.5" id="Path-6" stroke="#000000" stroke-width="14"></path>
        </g>
    </g>
</svg>