<?xml version="1.0" encoding="UTF-8"?>
<svg width="424px" height="538px" viewBox="0 0 424 538" version="1.1" xmlns="http://www.w3.org/2000/svg" xmlns:xlink="http://www.w3.org/1999/xlink">
    <!-- Generator: Sketch 53.2 (72643) - https://sketchapp.com -->
    <title>03_segmentace_EU_mestsky_liberal</title>
    <desc>Created with Sketch.</desc>
    <g id="03_segmentace_EU_mestsky_liberal" stroke="none" stroke-width="1" fill="none" fill-rule="evenodd">
        <g id="liberal" transform="translate(24.000000, 26.000000)" fill-rule="nonzero">
            <g id="020-man-6">
                <path d="M290.4,110.933 C264.8,102.4 247.733,59.733 247.733,59.733 C212.235,101.12 131.765,101.547 85.6,97.877 L85.6,238.933 C85.609,255.889 90.916,272.418 100.789,286.208 L103.946,290.645 C119.195,312.021 143.822,324.736 170.079,324.778 L209.076,324.778 C238.251,324.804 265.2,309.162 279.647,283.818 L279.647,283.818 C286.798,271.393 290.51,257.279 290.399,242.943 L290.399,110.933 L290.4,110.933 Z" id="Path" fill="#FEDAC6"></path>
                <path d="M119.733,204.203 L119.733,99.243 C107.274,99.243 95.584,98.731 85.6,97.878 L85.6,238.934 C85.609,255.89 90.916,272.419 100.789,286.209 L103.946,290.646 C116.012,307.132 133.83,318.49 153.866,322.475 L150.453,316.587 C130.434,282.513 119.836,243.721 119.733,204.203 Z" id="Path" fill="#F5C4B0"></path>
                <path d="M367.2,503.467 L367.2,418.134 C367.2,383.924 341.882,354.996 307.979,350.465 L258.315,343.894 C247.384,342.401 239.226,333.082 239.2,322.049 L239.2,298.668 L136.8,298.668 L136.8,322.049 C136.774,333.083 128.617,342.401 117.685,343.894 L68.021,350.465 C34.118,354.996 8.8,383.924 8.8,418.134 L8.8,503.467 L367.2,503.467 Z" id="Path" fill="#FEDAC6"></path>
                <path d="M246.453,338.261 C241.845,334.131 239.208,328.234 239.2,322.048 L239.2,298.667 L136.8,298.667 L136.8,322.048 C136.791,328.235 134.155,334.131 129.547,338.261 C166.24,357.094 209.76,357.094 246.453,338.261 Z" id="Path" fill="#F5C4B0"></path>
                <g id="Group" transform="translate(72.000000, 8.000000)">
                    <path d="M218.4,68.8 C218.4,45.239 199.294,26.133 175.733,26.133 C159.34,9.749 137.12,0.55 113.952,0.533 L90.4,0.533 C39.797,0.533 17.533,43.2 0.467,85.866 C0.467,85.866 124.534,111.466 175.734,51.733 C175.733,51.733 192.8,94.4 218.4,102.933 L218.4,68.8 Z" id="Path" fill="#7B4B30"></path>
                    <path d="M188.704,206.187 C184.446,213.526 175.042,216.009 167.703,211.751 C165.689,210.582 163.974,208.969 162.677,207.041 C154.784,195.359 141.625,188.327 127.52,188.268 L104.48,188.268 C90.374,188.328 77.216,195.359 69.323,207.041 C64.587,214.081 55.047,215.95 48.007,211.214 C46.078,209.917 44.466,208.193 43.297,206.188 L13.6,151.403 L13.6,230.934 C13.609,247.89 18.916,264.419 28.789,278.209 L31.946,282.646 C47.195,304.022 71.822,316.737 98.079,316.779 L137.076,316.779 C182.038,316.736 218.45,280.248 218.399,235.286 C218.399,235.175 218.399,235.056 218.399,234.945 L218.399054,151.403 L188.704,206.187 Z" id="Path" fill="#8E5637"></path>
                </g>
                <path d="M290.4,110.933 L281.867,110.933 L281.867,162.133 L290.4,162.133 C304.54,162.133 316,150.673 316,136.533 C316,122.393 304.54,110.933 290.4,110.933 Z" id="Path" fill="#FEDAC6"></path>
                <path d="M60,136.533 C60,150.673 71.46,162.133 85.6,162.133 L94.133,162.133 L94.133,110.933 L85.6,110.933 C71.46,110.933 60,122.394 60,136.533 Z" id="Path" fill="#F5C4B0"></path>
                <path d="M307.979,350.464 L258.315,343.893 C255.508,343.552 252.785,342.681 250.294,341.333 L188,426.667 L125.707,341.334 C123.241,342.776 120.51,343.732 117.686,344.15 L68.022,350.721 C34.213,355.244 8.929,384.027 8.801,418.134 L8.801,512 L367.201,512 L367.201,418.133 C367.2,383.923 341.882,354.995 307.979,350.464 Z" id="Path" fill="#2E6AA3"></path>
                <polygon id="Path" fill="#EBEBEB" points="153.867 384 188 426.667 222.133 384"></polygon>
                <g id="Group" transform="translate(74.000000, 13.000000)">
                    <path d="M59.899,0.056 C22.011,12.6 14.206,46.733 0.467,80.867 C23.046,84.451 22.873,86.277 45.734,86.328 L45.734,63.8 C45.58,41.758 50.418,19.964 59.899,0.056 Z" id="Path" fill="#693B21"></path>
                    <path d="M46.245,206.307 C44.257,204.967 42.567,203.226 41.296,201.187 L11.6,146.403 L11.6,225.934 C11.609,242.89 16.916,259.419 26.789,273.209 L29.946,277.646 C42.012,294.132 59.83,305.49 79.866,309.475 L76.453,303.587 C59.028,273.916 48.686,240.628 46.245,206.307 Z" id="Path" fill="#804D31"></path>
                </g>
                <circle id="Oval" fill="#000000" cx="136.8" cy="136.533" r="17.067"></circle>
                <circle id="Oval" fill="#000000" cx="239.2" cy="136.533" r="17.067"></circle>
                <path d="M188,204.8 L179.467,204.8 C177.018,204.8 174.688,203.75 173.067,201.916 C171.446,200.081 170.695,197.641 170.993,195.209 L179.526,126.942 L196.456,129.058 L188,196.804 L188,204.8 Z" id="Path" fill="#000000"></path>
                <path d="M290.4,170.667 L281.867,170.667 L281.867,153.6 L290.4,153.6 C299.812,153.6 307.467,145.946 307.467,136.533 C307.467,127.12 299.813,119.466 290.4,119.466 L281.867,119.466 L281.867,102.4 L290.4,102.4 C309.225,102.4 324.533,117.709 324.533,136.533 C324.533,155.357 309.225,170.667 290.4,170.667 Z" id="Path" fill="#000000"></path>
                <path d="M94.133,170.667 L85.6,170.667 C66.775,170.667 51.467,155.358 51.467,136.534 C51.467,117.71 66.775,102.4 85.6,102.4 L94.133,102.4 L94.133,119.467 L85.6,119.467 C76.188,119.467 68.533,127.121 68.533,136.534 C68.533,145.946 76.187,153.601 85.6,153.601 L94.133,153.601 L94.133,170.667 L94.133,170.667 Z" id="Path" fill="#000000"></path>
                <path d="M209.146,333.312 C209.12,333.312 209.095,333.312 209.069,333.312 L170.08,333.312 C141.118,333.261 113.811,319.172 97.001,295.603 L93.835,291.157 C82.878,275.848 77.067,257.783 77.067,238.933 L77.067,93.867 L94.134,93.867 L94.134,238.934 C94.134,254.2 98.836,268.826 107.728,281.242 L110.902,285.688 C124.521,304.777 146.648,316.203 170.098,316.237 L209.078,316.237 C209.095,316.237 209.121,316.237 209.138,316.237 C235.182,316.237 259.357,302.191 272.242,279.586 C278.651,268.459 281.979,255.821 281.876,243.004 L281.876,102.4 L298.943,102.4 L298.943,242.944 C299.062,258.722 294.949,274.347 287.056,288.077 C271.14,315.964 241.291,333.312 209.146,333.312 Z" id="Path" fill="#000000"></path>
                <path d="M290.4,119.467 C289.495,119.467 288.582,119.322 287.703,119.032 C267.539,112.308 252.64,88.739 245.173,74.343 C185.883,125.517 76.793,103.297 70.99,102.273 C68.464,101.829 66.263,100.268 65.017,98.015 C63.771,95.771 63.592,93.083 64.548,90.693 C82.57,45.628 108.188,0 162.4,0 L185.952,0 C210.426,0.009 233.491,9.122 251.309,25.728 C277.873,27.563 298.934,49.775 298.934,76.8 L298.934,110.933 C298.934,113.672 297.62,116.249 295.393,117.854 C293.916,118.921 292.166,119.467 290.4,119.467 Z M247.733,51.2 C248.194,51.2 248.655,51.234 249.124,51.311 C252.068,51.797 254.543,53.786 255.652,56.55 C259.065,65.032 269.118,84.898 281.866,96.008 L281.866,76.8 C281.866,57.975 266.557,42.667 247.733,42.667 C245.472,42.667 243.296,41.771 241.7,40.175 C226.801,25.284 207.003,17.075 185.943,17.067 L162.4,17.067 C119.682,17.067 102.118,50.833 83.9,87.049 C117.888,91.418 201.662,100.37 241.257,54.179 C242.895,52.267 245.267,51.2 247.733,51.2 Z" id="Shape" fill="#000000"></path>
                <path d="M247.153,230.409 C239.345,230.409 231.981,226.45 227.552,219.742 C221.289,210.466 210.775,204.851 199.477,204.809 L176.48,204.809 C165.088,204.536 154.438,210.381 148.055,219.828 C143.694,226.424 136.296,230.401 128.3,230.401 C128.283,230.401 128.266,230.401 128.24,230.401 C119.775,230.222 112.052,225.639 107.897,218.454 L78.184,166.367 L93.006,157.91 L122.702,209.963 C123.863,211.977 126.073,213.291 128.445,213.342 L128.454,213.342 C130.536,213.342 132.61,212.224 133.856,210.347 C143.456,196.148 159.302,187.734 176.326,187.734 C176.386,187.734 176.445,187.734 176.505,187.734 L199.511,187.734 C216.484,187.811 232.262,196.233 241.742,210.271 C243.065,212.276 244.942,213.292 247.519,213.343 C250.173,213.343 252.426,212.037 253.646,209.93 L282.967,157.945 L297.832,166.325 L268.477,218.378 C264.185,225.819 256.257,230.401 247.741,230.401 C247.716,230.4 247.349,230.409 247.153,230.409 Z" id="Path" fill="#000000"></path>
                <path d="M188,243.063 C178.409,243.063 168.817,241.536 159.695,238.489 L165.105,222.301 C179.868,227.233 196.132,227.233 210.903,222.301 L216.305,238.489 C207.174,241.545 197.591,243.063 188,243.063 Z" id="Path" fill="#000000"></path>
                <path d="M17.333,511.867 L0.267,511.867 L0.267,418.134 C0.267,379.819 28.905,347.094 66.895,342.008 L116.568,335.429 C123.207,334.524 128.259,328.764 128.276,322.032 L145.343,322.066 C145.309,337.272 133.917,350.294 118.847,352.351 L69.149,358.93 C39.607,362.872 17.335,388.327 17.335,418.134 L17.335,477.867 L17.333,511.867 Z" id="Path" fill="#000000"></path>
                <path d="M375.733,511.867 L358.666,511.867 L358.666,418.134 C358.666,388.327 336.394,362.872 306.843,358.93 L257.205,352.351 C242.092,350.294 230.709,337.273 230.675,322.066 L247.742,322.032 C247.759,328.765 252.802,334.525 259.475,335.429 L309.096,342.008 C347.095,347.085 375.733,379.819 375.733,418.134 L375.733,477.867 L375.733,511.867 Z" id="Path" fill="#000000"></path>
                <rect id="Rectangle" fill="#000000" x="68.533" y="443.733" width="17.067" height="68.267"></rect>
                <rect id="Rectangle" fill="#000000" x="290.4" y="443.733" width="17.067" height="68.267"></rect>
                <path d="M188,435.2 C185.218,435.2 182.607,433.843 181.011,431.556 L121.278,346.223 L135.264,336.444 L188,411.785 L240.745,336.444 L254.731,346.223 L194.998,431.556 C193.393,433.843 190.782,435.2 188,435.2 Z" id="Path" fill="#000000"></path>
                <path d="M119.733,443.733 C118.607,443.733 117.472,443.511 116.396,443.059 C113.751,441.933 111.848,439.552 111.336,436.727 L94.269,342.86 L111.063,339.814 L125.809,420.906 L166.206,393.975 L175.669,408.174 L124.469,442.307 C123.044,443.247 121.389,443.733 119.733,443.733 Z" id="Path" fill="#000000"></path>
                <path d="M256.267,445.733 C254.612,445.733 252.956,445.247 251.531,444.299 L200.331,410.166 L209.794,395.967 L250.182,422.898 L264.936,341.806 L281.721,344.852 L264.654,438.719 C264.142,441.544 262.248,443.924 259.594,445.051 C258.537,445.511 257.402,445.733 256.267,445.733 Z" id="Path" fill="#000000"></path>
                <rect id="Rectangle" fill="#000000" x="177.467" y="426.667" width="17.067" height="85.333"></rect>
                <rect id="Rectangle" fill="#000000" x="153.867" y="375.467" width="68.267" height="17.067"></rect>
            </g>
            <path d="M8.18572134,411.051 L8.18572134,512.939 L42.3187213,512.939 L42.3187213,352 C21.2157213,364.186 8.21172134,386.688 8.18572134,411.051 Z" id="Path" fill-opacity="0.15" fill="#000000"></path>
        </g>
    </g>
</svg>