<?xml version="1.0" encoding="UTF-8"?>
<svg width="424px" height="538px" viewBox="0 0 424 538" version="1.1" xmlns="http://www.w3.org/2000/svg" xmlns:xlink="http://www.w3.org/1999/xlink">
    <!-- Generator: Sketch 53.2 (72643) - https://sketchapp.com -->
    <title>04_segmentace_EU_uzitkar</title>
    <desc>Created with Sketch.</desc>
    <g id="04_segmentace_EU_uzitkar" stroke="none" stroke-width="1" fill="none" fill-rule="evenodd">
        <g id="uzitkar" transform="translate(24.000000, 26.000000)">
            <g>
                <g id="Group-4">
                    <g id="010-woman-6">
                        <path d="M341.6,366.933 C356.533,332.032 352.693,280.064 329.397,250.112 L329.397,250.112 C315.53,232.243 307.833,210.355 307.466,187.733 L307.466,128 C307.467,62.02 253.98,8.533 188,8.533 L188,8.533 C122.02,8.533 68.533,62.02 68.533,128 L68.533,190.72 C68.516,210.901 61.792,230.502 49.418,246.443 L43.957,253.44 C22.453,281.088 18.784,335.616 34.4,366.933 L341.6,366.933 Z" id="Path" fill="#FECB66" fill-rule="nonzero"></path>
                        <path d="M111.2,102.4 C111.558,75.042 118.001,48.111 130.059,23.552 C92.094,44.604 68.542,84.591 68.533,128 L68.533,190.72 C68.516,210.901 61.792,230.502 49.418,246.443 L43.957,253.44 C22.453,281.088 18.784,335.616 34.4,366.933 L179.467,366.933 L136.8,247.467 C125.024,206.336 113.333,161.622 111.2,118.87 C111.2,113.237 111.2,107.691 111.2,102.4 Z" id="Path" fill="#F5AD76" fill-rule="nonzero"></path>
                        <path d="M367.200002,512 L367.2,410.112 C367.209,375.697 341.609,346.658 307.467,342.357 L245.686,334.677 C237.101,333.593 230.684,326.263 230.753,317.61 L230.753,273.066 L145.334,273.066 L145.334,317.695 C145.402,326.348 138.985,333.678 130.401,334.762 L68.62,342.442 C34.478,346.743 8.878,375.782 8.887,410.197 L8.88699763,512 L367.200002,512 Z" id="Path" fill="#FEDAC6" fill-rule="nonzero"></path>
                        <path d="M42.933,351.061 C21.83,363.247 8.826,385.749 8.8,410.112 L8.8,512 L42.933,512 L42.933,351.061 L42.933,351.061 Z" id="Path" fill-opacity="0.15" fill="#000000" fill-rule="nonzero"></path>
                        <path d="M254.56,335.787 C273.699801,342.918249 284.179801,349.989249 286,357 C287.39937,362.38987 294.571472,368.16793 290.400575,375.467 C286.137439,382.927487 249.245978,375.565495 239.746657,384 C236.098911,387.238856 259.194639,411.448222 254.56,416.9495 C251.357628,420.750688 231.617473,411.728973 222.133,416.9495 C217.643015,419.420917 235.368396,437.900803 228.192,445.733 C224.915639,449.308765 211.518306,451.486765 188,452.267 C168.308673,451.711222 156.905607,449.533222 153.790802,445.733 C148.48259,439.256709 163.482045,419.837961 158,416.9495 C147.692742,411.518659 135.349576,411.518659 120.9705,416.9495 L136.8,384 C106.516633,382.864632 89.4502837,380.020298 85.6009529,375.467 C81.751622,370.913702 90.6599711,358.091368 112.326,337 L64.2005,341.333 L64.2005,511.867 L308.090904,511.867 L308.090904,346 L254.56,335.787 Z" id="Path" fill="#EBEBEB" fill-rule="nonzero"></path>
                        <path d="M230.667,307.2 L230.667,273.067 L145.334,273.067 L145.334,307.2 C171.215,324.275 204.785,324.275 230.667,307.2 Z" id="Path" fill="#F5C4B0" fill-rule="nonzero"></path>
                        <g id="Group" transform="translate(94.000000, 68.000000)" fill="#FEDAC6" fill-rule="nonzero">
                            <path d="M196.4,77.067 L179.333,77.067 L179.333,128.267 L196.4,128.267 C210.54,128.267 222,116.807 222,102.667 C222,88.527 210.54,77.067 196.4,77.067 Z" id="Path"></path>
                            <path d="M187.867,77.067 L184.368,136.203 C181.526,184.45 141.565,222.125 93.232,222.134 L93.232,222.134 C45.531,222.1 5.876,185.381 2.181,137.825 L0.133,111.201 C0.133,111.201 85.466,60.001 128.133,0.268 C128.133,0.267 153.733,51.467 187.867,77.067 Z" id="Path"></path>
                        </g>
                        <path d="M126.048,157.952 C107.36,171.264 94.133,179.2 94.133,179.2 L96.181,205.824 C98.647,238.353 118.351,267.076 147.808,281.088 C130.673,242.415 123.206,200.158 126.048,157.952 Z" id="Path" fill="#F5C4B0" fill-rule="nonzero"></path>
                        <circle id="Oval" fill="#000000" fill-rule="nonzero" cx="136.8" cy="162.133" r="17.067"></circle>
                        <circle id="Oval" fill="#000000" fill-rule="nonzero" cx="239.2" cy="162.133" r="17.067"></circle>
                        <path d="M196.533,213.333 L170.933,213.333 C167.972,213.333 165.233,211.797 163.671,209.288 C162.118,206.771 161.973,203.63 163.296,200.985 L180.363,166.852 L195.629,174.489 L184.74,196.266 L196.533,196.266 L196.533,213.333 Z" id="Path" fill="#000000" fill-rule="nonzero"></path>
                        <path d="M187.232,298.667 C135.418,298.633 91.693,258.142 87.674,206.49 L85.626,179.857 C85.379,176.64 86.974,173.551 89.739,171.887 C90.575,171.384 174.074,120.866 215.188,63.309 C216.92,60.877 219.762,59.52 222.8,59.759 C225.787,59.989 228.423,61.764 229.763,64.444 C230.01,64.939 254.911,114.176 286.988,138.24 C289.283,139.955 290.563,142.711 290.384,145.57 L286.885,204.706 C283.787,257.382 240.011,298.658 187.232,298.667 Z M103.042,183.731 L104.689,205.167 C108.017,247.996 144.275,281.566 187.232,281.6 C230.974,281.591 267.266,247.373 269.843,203.708 L273.077,149.035 C249.388,129.801 230.385,100.258 220.955,83.917 C181.882,132.489 120.297,172.902 103.042,183.731 Z" id="Shape" fill="#000000" fill-rule="nonzero"></path>
                        <path d="M26.635,361.941 C9.841,325.154 13.801,281.711 36.96,248.55 L42.686,241.194 C53.831,226.832 59.975,208.904 60,190.711 L60,128 C60,57.421 117.421,0 188,0 C258.579,0 316,57.421 316,128 L316,153.6 L298.933,153.6 L298.933,128 C298.933,66.833 249.167,17.067 188,17.067 C126.833,17.067 77.067,66.833 77.067,128 L77.067,190.72 C77.05,212.685 69.617,234.325 56.16,251.674 L50.69,258.688 C31.234,286.549 27.872,323.541 42.165,354.859 L26.635,361.941 Z" id="Path" fill="#000000" fill-rule="nonzero"></path>
                        <path d="M349.434,361.788 L333.767,355.004 L335.132,351.847 C348.828,319.847 344.058,282.855 322.665,255.344 C307.749,236.127 299.326,212.165 298.934,187.862 L316,187.588 C316.333,208.222 323.484,228.565 336.139,244.872 C361.338,277.273 366.953,320.853 350.808,358.596 L349.434,361.788 Z" id="Path" fill="#000000" fill-rule="nonzero"></path>
                        <path d="M290.4,204.8 L281.867,204.8 L281.867,187.733 L290.4,187.733 C299.812,187.733 307.467,180.079 307.467,170.666 C307.467,161.254 299.813,153.599 290.4,153.599 L281.867,153.599 L281.867,136.532 L290.4,136.532 C309.225,136.532 324.533,151.841 324.533,170.665 C324.533,189.489 309.225,204.8 290.4,204.8 Z" id="Path" fill="#000000" fill-rule="nonzero"></path>
                        <path d="M177.444,247.467 C177.435,247.467 177.427,247.467 177.418,247.467 L170.933,247.467 L170.933,230.4 L177.418,230.4 C177.427,230.4 177.435,230.4 177.444,230.4 C188.614,230.4 199.801,227.763 209.785,222.763 L217.422,238.029 C205.075,244.207 191.251,247.467 177.444,247.467 Z" id="Path" fill="#000000" fill-rule="nonzero"></path>
                        <path d="M17.333,512 L0.266997897,512 L0.267,410.112 C0.258,371.49 29.144,338.722 67.467,333.892 L129.265,326.212 C133.54,325.674 136.749,322.005 136.723,317.679 L136.723,281.6 L153.790802,281.6 L153.79,317.611 C153.892,330.53 144.258,341.538 131.39,343.143 L69.6,350.823 C39.793,354.578 17.325,380.067 17.333,410.113 L17.333,512 Z" id="Path" fill="#000000" fill-rule="nonzero"></path>
                        <path d="M375.733002,512 L358.666,512 L358.666,410.112 C358.675,380.066 336.206,354.577 306.399,350.831 L244.635,343.151 C231.75,341.547 222.116,330.53 222.218,317.551 L222.217198,281.6 L239.285,281.6 L239.285,317.611 C239.251,322.006 242.459,325.675 246.743,326.213 L308.516,333.893 C346.848,338.714 375.742,371.482 375.733,410.113 L375.733002,512 Z" id="Path" fill="#000000" fill-rule="nonzero"></path>
                        <polygon id="Rectangle" fill="#000000" fill-rule="nonzero" points="55.667 341.806 72.734 339.814 72.734 512 55.667 512"></polygon>
                        <polygon id="Rectangle" fill="#000000" fill-rule="nonzero" points="305 341.2 321.067 341.2 321.067 513.2 304 513.2"></polygon>
                        <path d="M188.0595,513.2 L188.0595,459" id="Path-24" stroke="#000000" stroke-width="14"></path>
                    </g>
                    <path d="M164.396191,245.891901 C171.052375,234.510735 176.741843,228.820151 181.464596,228.820151 C186.187348,228.820151 189.787348,229.880101 192.264596,232 C194.8175,228.327066 199.062634,226.6604 205,227 C210.937366,227.3396 216.981699,232.042243 223.133,241.107929 C214.153291,250.417872 205.168124,255.715229 196.1775,257 C187.186876,258.284771 176.593106,254.582072 164.396191,245.891901 Z" id="Path-12" stroke="#000000" stroke-width="14" fill="#B82457"></path>
                </g>
                <path d="M292.090904,227 C301.479745,227 309.090904,219.388841 309.090904,210 C309.090904,205.219661 307.117826,200.900159 303.941629,197.811453 C300.879606,194.833776 296.699406,193 292.090904,193 C282.702064,193 275.090904,200.611159 275.090904,210 C275.090904,219.388841 282.702064,227 292.090904,227 Z" id="Oval" stroke="#000000" stroke-width="14" fill="#B82457"></path>
            </g>
            <path d="M112.326,337 C90.1015207,357.922342 81.1931717,372.255676 85.6009529,380 C92.2126246,391.616486 129.940835,372.57464 136.8,380 C143.659165,387.42536 114.151461,407.221431 119.733,416.9495 C125.314539,426.677569 152.398859,411.207009 158,416.9495 C163.601141,422.691991 143.413735,438.292864 147.808,445.733 C152.202265,453.173136 166.412609,441.616428 175,445.733 C180.724927,448.477381 185.058261,454.899715 188,465" id="Path-23" stroke="#000000" stroke-width="14"></path>
            <path d="M215.819314,337 C193.594835,357.922342 184.686486,372.255676 189.094267,380 C195.705939,391.616486 233.434149,372.57464 240.293314,380 C247.152479,387.42536 217.644775,407.221431 223.226314,416.9495 C228.807853,426.677569 255.892173,411.207009 261.493314,416.9495 C267.094455,422.691991 246.907049,438.292864 251.301314,445.733 C255.695579,453.173136 269.905923,441.616428 278.493314,445.733 C284.218241,448.477381 288.551575,454.899715 291.493314,465" id="Path-23" stroke="#000000" stroke-width="14" transform="translate(239.746657, 401.000000) scale(-1, 1) translate(-239.746657, -401.000000) "></path>
            <path d="M259.5,119.4 L294.6665,93.867" id="Line-3" stroke="#000000" stroke-width="14" stroke-linecap="square"></path>
        </g>
    </g>
</svg>