<?xml version="1.0" encoding="UTF-8"?>
<svg width="424px" height="538px" viewBox="0 0 424 538" version="1.1" xmlns="http://www.w3.org/2000/svg" xmlns:xlink="http://www.w3.org/1999/xlink">
    <!-- Generator: Sketch 53.2 (72643) - https://sketchapp.com -->
    <title>05_segmentace_EU_vylouceny</title>
    <desc>Created with Sketch.</desc>
    <g id="05_segmentace_EU_vylouceny" stroke="none" stroke-width="1" fill="none" fill-rule="evenodd">
        <g id="vyloucena" transform="translate(13.000000, 26.000000)">
            <g id="013-woman-3">
                <path d="M30.351,380.416 C8.804,370.876 7.468,355.547 17,334 C20.746,325.526 18.755,308.633 26.853,304.128 C9.795,287.872 22.6285,273.058 38.8845,256 C46.0185,248.508 42.153,231.672 52.453,230.741 C49.21,225.51 47.47,219.486 47.418,213.333 C47.418,194.483 62.701,179.2 81.551,179.2 L81.551,128 C81.551,62.02 135.038,8.533 201.018,8.533 C266.998,8.533 320.485,62.02 320.485,128 L320.485,179.2 C339.335,179.2 354.618,194.483 354.618,213.333 C354.533,219.366 352.817,225.254 349.669,230.4 C373.136,232.516 365.357555,246.525 363.241555,270 C362.311555,280.308 382.762,296.652 375.269,303.786 C395.945,315.084 403.548,341.008 392.25,361.685 C387.676,370.048 380.44,376.644 371.685,380.416 L30.351,380.416 Z" id="Path" fill="#351D11" fill-rule="nonzero"></path>
                <path d="M120.293,40.107 C95.649,62.695 81.603,94.575 81.552,128 L81.552,179.2 C62.702,179.2 47.419,194.483 47.419,213.333 C47.504,219.366 49.22,225.254 52.368,230.4 C30.352,268 21.884,248.525 24,272 C24.93,282.308 16.507,300.066 24,307.2 C20,329 9.787,338 9.787,361.685 C9.787,372.158185 21.597,376.644 30.352,380.416 L252.219,380.416 C246.502,376.149 240.784,371.883 235.152,366.933 C121.743,276.224 116.111,114.859 120.293,40.107 Z" id="Path" fill="#1F0D04" fill-rule="nonzero"></path>
                <path d="M303.418,145.067 L286.351,145.067 L286.351,196.267 L303.418,196.267 C317.558,196.267 329.018,184.807 329.018,170.667 C329.018,156.527 317.558,145.067 303.418,145.067 Z" id="Path" fill="#F5C4B0" fill-rule="nonzero"></path>
                <path d="M73.018,170.667 C73.018,184.807 84.478,196.267 98.618,196.267 L115.685,196.267 L115.685,145.067 L98.618,145.067 C84.478,145.067 73.018,156.527 73.018,170.667 Z" id="Path" fill="#EAB098" fill-rule="nonzero"></path>
                <path d="M335.333,352.768 L324,357 L303.402,403.627 C286.463,443.025 233.22367,511.939 193.82567,495 C175.56467,487.149 151.859,479.066504 144,460.805504 L101.741,411.982 L66.704,352.768 C40.916,355.968 21.622,377.984 21.819,403.968 L21.819,469 L73,469 L75.772302,512 L327,513 L324,469 L380.219,469 L380.219,403.627 C380.244,377.771 360.984,355.96 335.333,352.768 Z" id="Path" fill="#81181F" fill-rule="nonzero"></path>
                <polygon id="Path-25" fill="#F5C4B0" points="21.818 469 75.772302 469 75.772302 513 21.818 513"></polygon>
                <polygon id="Path-25" fill="#F5C4B0" transform="translate(350.477151, 491.000000) scale(-1, 1) translate(-350.477151, -491.000000) " points="327 469 371.954302 469 373.954302 513 327 513"></polygon>
                <path d="M207.84525,491 C238.88925,491.017 306.693283,411.232004 320.484,357 L276.112,345.515 L259.045,343.382 C250.46,342.298 244.043,334.968 244.112,326.315 L244.112,281.6 L158.352,281.6 L158.352,326.229 C158.42,334.882 152.003,342.212 143.419,343.296 L64.485,352 L115.685,432.884 C127.886,461.454 176.77525,491 207.84525,491 Z" id="Path" fill="#F5C4B0" fill-rule="nonzero"></path>
                <path d="M243.685,328.875 L243.685,281.6 L158.352,281.6 L158.352,328.875 C190.351,345.515 211.685,345.515 243.685,328.875 Z" id="Path" fill="#EAB098" fill-rule="nonzero"></path>
                <path d="M21.818,408.917 L21.818,512 L55.951,512 L55.951,358.4 C30.351,366.933 21.818,384 21.818,408.917 Z" id="Path" fill-opacity="0.15" fill="#000000" fill-rule="nonzero"></path>
                <path d="M294.885,145.067 L290.192,213.334 C288.093,261.061 248.788,298.667 201.019,298.667 C153.249,298.667 113.945,261.061 111.846,213.334 L107.153,145.067 L219.4015,79 L294.885,145.067 Z" id="Path" fill="#F5C4B0" fill-rule="nonzero"></path>
                <path d="M141.285,116.907 L107.152,145.067 L111.845,213.334 C113.262,245.317 131.736,274.083 160.229,288.683 C156.15,277.991 152.677,267.077 149.818,256 C144.186,233.472 142.309,162.133 141.285,116.907 Z" id="Path" fill="#EAB098" fill-rule="nonzero"></path>
                <circle id="Oval" fill="#000000" fill-rule="nonzero" cx="252.201" cy="162.133" r="17.067"></circle>
                <path d="M206.846,212.898 L181.246,204.365 C176.775,202.872 174.36,198.042 175.853,193.57 L192.92,142.37 L209.108,147.772 L194.738,190.874 L212.24,196.711 L206.846,212.898 Z" id="Path" fill="#000000" fill-rule="nonzero"></path>
                <path d="M133.6905,388.24 C156.44728,429.160667 176.492337,449.621 193.82567,449.621 C211.159004,449.621 238.550447,417.080667 276,352 C290.348755,346.26888 296.643755,347.935547 294.885,357 C293.761663,362.78957 290.801536,401.556604 291.125124,410 C291.416382,417.59983 299.192484,400.544062 294.369298,410 C281.603269,435.028017 263.437118,453.515115 260,458 C245.649997,476.724442 212.253497,490.998977 188.239736,491 C169.978679,491.000778 129.563415,449.569282 103.640264,418.248511 C95.4738023,408.381659 104.879348,386.086038 101.741,381.991 C100.966431,380.980312 100.211033,379.857262 99.4748059,378.62185 C97.0978937,374.633315 96.8179584,365.759365 98.635,352 C111.287003,344.820654 120.384003,343.48732 125.926,348 C131.467997,352.51268 134.056164,365.926013 133.6905,388.24 Z" id="Path-16" fill="#5A3333"></path>
                <path d="M30.351,512 L13.285,512 L13.285,403.627 C13.055,373.385 35.566,347.7 65.646,343.962 L142.446,334.405 C146.73,333.867 149.938,330.198 149.904,325.872 L149.904,290.134 L166.971803,290.134 L166.971,325.803 C167.073,338.722 157.448,349.73 144.562,351.335 L67.762,360.892 C46.267,363.563 30.19,381.91 30.36,403.559 L30.36,512 L30.351,512 Z" id="Path" fill="#000000" fill-rule="nonzero"></path>
                <path d="M388.837,512 L371.77,512 C371.77,489.777778 371.77,473.111111 371.77,462 C371.77,449.122889 371.77,429.807222 371.77,404.053 C371.941,382.336 355.855,363.998 334.368,361.318 L257.568,351.769 C244.683,350.148 235.049,339.14 235.151,326.169 L235.150198,290.133 L252.218,290.133 L252.218,326.229 C252.184,330.624 255.392,334.284 259.685,334.831 L336.468,344.38 C366.557,348.118 389.067,373.803 388.837,404.113 C388.837,429.840556 388.837,449.136222 388.837,462 C388.837,473.111111 388.837,489.777778 388.837,512 L388.837,512 Z" id="Path" fill="#000000" fill-rule="nonzero"></path>
                <path d="M303.418,204.8 L294.885,204.8 L294.885,187.733 L303.418,187.733 C312.83,187.733 320.485,180.079 320.485,170.666 C320.485,161.254 312.831,153.599 303.418,153.599 L294.885,153.599 L294.885,136.532 L303.418,136.532 C322.243,136.532 337.551,151.841 337.551,170.665 C337.551,189.489 322.243,204.8 303.418,204.8 Z" id="Path" fill="#000000" fill-rule="nonzero"></path>
                <path d="M201.018,307.2 C148.547,307.2 105.632,266.129 103.32,213.709 L98.635,137.054 L115.668,136.013 L120.361,212.813 C122.272,256.231 157.703,290.134 201.018,290.134 C244.333,290.134 279.764,256.231 281.667,212.959 L286.369,136.014 L303.402,137.055 L298.709,213.855 C296.404,266.138 253.49,307.2 201.018,307.2 Z" id="Path" fill="#000000" fill-rule="nonzero"></path>
                <circle id="Oval" fill="#000000" fill-rule="nonzero" cx="149.801" cy="162.133" r="17.067"></circle>
                <path d="M289.483,151.671 L219.018,88.291 L112.553,151.671 L101.741,138.461 L213.608,70.661 C216.748,68.084 221.271,68.084 224.42,70.661 L300.287,138.461 L289.483,151.671 Z" id="Path" fill="#000000" fill-rule="nonzero"></path>
                <path d="M107.151,204.8 L98.618,204.8 C79.793,204.8 64.485,189.491 64.485,170.667 C64.485,151.843 79.794,136.534 98.618,136.534 L107.151,136.534 L107.151,153.6 L98.618,153.6 C89.206,153.6 81.551,161.254 81.551,170.667 C81.551,180.079 89.205,187.734 98.618,187.734 L107.151,187.734 L107.151,204.8 Z" id="Path" fill="#000000" fill-rule="nonzero"></path>
                <path d="M329.018,153.6 L311.951,153.6 L311.951,128 C311.951,117.354014 310.443455,107.053394 307.630641,97.3004157 C305.490898,89.8812049 300.595817,86.7789049 297.034442,80.0825593 C293.869664,74.131923 292.178727,64.5018609 288.024117,59.2548582 C283.949788,54.1092471 276.429533,51.3320343 271.522283,46.9821526 C265.661509,41.7870482 262.248736,35.201478 255.384358,31.3258359 C239.309135,22.249732 220.757229,17.067 201.018,17.067 C188.831715,17.067 177.097963,19.0423364 166.120133,22.6896217 C160.206705,24.6543052 157.512619,28.1041305 152.085295,30.9916772 C147.347637,33.5122952 139.813252,35.3664578 135.513685,38.522622 C130.01509,42.55895 125.900541,53.0892054 121.236013,58.0474129 C115.265305,64.3940381 109.031937,65.4418466 104.67428,73.0524703 C100.390214,80.534566 101.95253,91.5606279 99.4927029,99.9991805 C96.6237644,109.841208 90.085,117.244345 90.085,128 L90.085,153.6 L73.018,153.6 L73.018,128 C73.018,115.629449 79.781997,106.663117 83.0716593,95.3393365 C86.1809567,84.636414 85.6532079,71.5075144 91.2871729,62.1538778 C95.7247146,54.7865704 101.882958,53.9002194 107.663571,47.5931576 C112.614464,42.1913792 117.021886,31.2145283 122.824058,26.724382 C127.720055,22.9355 135.897129,20.4931686 141.318162,17.4345054 C148.491015,13.3874273 153.090974,9.01204981 161.032058,6.39435531 C173.61793,2.2455553 187.060681,0 201.018,0 C224.96933,0 247.405361,6.6127029 266.596265,18.1082794 C273.097179,22.0024029 276.225709,28.4568429 281.914615,33.4043574 C288.179137,38.852472 296.910568,42.8984898 302.019122,49.4526231 C306.461429,55.1519804 307.128998,62.8075748 311.873993,71.6443242 C316.618988,80.4810737 322.356244,85.9360733 324.930983,95.8545466 C327.598301,106.129655 329.018,116.902166 329.018,128 L329.018,153.6 Z" id="Path" fill="#000000" fill-rule="nonzero"></path>
                <rect id="Rectangle" fill="#000000" fill-rule="nonzero" x="210.868" y="14" width="17.067" height="59.733"></rect>
                <path d="M26.981,388.258 C16.519,383.761 7.764,375.774 2.294,365.773 C-4.268,353.775 10.247,340.943 14.096,327.818 C16.963,318.039 6.535,308.531 14.156,302.114 C10.7993333,297.284 12.4823333,289.408333 19.205,278.487 C19.49848,270.316966 20.36948,264.756792 21.818,261.806475 C24.0396394,257.281485 28.7954034,255.013161 32.4839788,251.715705 C40.4110653,244.629168 40.094252,228.192522 49.439,225.171 C48.466,221.689 47.946,218.088 47.886,214.453 C47.886,190.807 58.026,170.658 81.553,170.658 L81.553,187.725 C67.439,187.725 64.953,200.211 64.953,214.325 C65.013,218.694 66.293,223.097 68.648,226.937 C70.193,229.454 70.321,232.595 68.998,235.223 C67.675,237.86 65.081,239.626 62.137,239.891 C51.6867001,240.833021 49.9541225,257.104088 41.9084189,264.832197 C35.5200055,270.968436 35.4560208,268.653742 36.204,276.951 C36.946,285.203 26.658,291.883 32.657,297.592 C34.628,299.478 35.592,302.183 35.234,304.879 C34.876,307.576 33.254,309.956 30.865,311.262 C22.861,315.631 33.041,323.85 30.481,332.605 C27.921,341.36 12.911,349.576 17.28,357.58 C20.924,364.245 26.761,369.569 33.732,372.565 L26.981,388.258 Z" id="Path" fill="#000000" fill-rule="nonzero"></path>
                <path d="M370.055,379 L361,360.781 C367.963,357.786 371.567024,359.206 375.219024,352.541 C381.188415,341.607485 381.129855,340.057955 375.219024,333 C372.198342,329.393089 380.642485,324.053315 375.055,321 C372.666,319.694 368.35,311.697 368,309 C367.642,306.303 372.499372,297.277901 371.172,293 C369,286 352.258,283.252 353,275 C353.908925,264.921692 349.5757,260.138673 348.573137,253.534886 C347.711594,247.859989 350.878838,239.794379 343.9,237.899 C340.97,237.103243 338.37,235.868 337.039,233.231 C335.708,230.594 335.844,227.462 337.389,224.945 C339.736,221.114 340.932,216.517 341,212.012 C341,198.026 334.598,187.733 320.484,187.733 L320.484,170.666 C344.01,170.666 357.151,189.806 357.151,213.333 C357.091,217.036 357.571,220.672 356.589,224.179 C363.116035,229.4745 363.116035,233.049546 365.172,237.899 C366.364226,240.711133 366.846164,247.590269 366.912991,250.872337 C367.023584,256.303862 371.997304,258.838904 371.172,268 C370.79392,272.15702 380.15254,273.374055 384.766,279.462 C390.048626,286.432979 390.559732,298.263549 387.872,302.131 C390.935836,304.72174 394.657156,310.348071 396,316 C397.177162,320.954584 391.048287,320.919682 392.482457,324 C396.265256,332.12471 396.758289,338.605847 397,345 C397.182582,349.829975 395.967719,354.400476 392.482457,360.781 C387.004457,370.782 380.5,374.512 370.055,379 Z" id="Path" fill="#000000" fill-rule="nonzero"></path>
                <path d="M75.772302,458 C71.1121968,478.147577 69.5214295,491.147577 71,497 C72.4785705,502.852423 73.1849215,507.852423 73.119053,512" id="Path-15" stroke="#000000" stroke-width="14"></path>
                <path d="M332.306498,458 C327.646393,478.147577 326.055626,491.147577 327.534196,497 C329.012767,502.852423 329.719118,507.852423 329.653249,512" id="Path-15" stroke="#000000" stroke-width="14" transform="translate(329.653249, 485.000000) scale(-1, 1) translate(-329.653249, -485.000000) "></path>
                <path d="M28,469 L73.119053,469" id="Path-28" stroke="#000000" stroke-width="14"></path>
                <g id="triko" transform="translate(64.485000, 352.000000)" stroke="#000000" stroke-width="14">
                    <path d="M61.441,0 C80.297291,66.0806667 102.510914,99.121 128.08187,99.121 C153.652826,99.121 181.463869,66.0806667 211.515,0" id="Path-17"></path>
                    <path d="M-5.68434189e-14,6.4 C53.5461997,97.4666667 99.2178664,143 137.015,143 C174.812134,143 216.645467,97 262.515,5" id="Path-26"></path>
                    <path d="M35.6425283,-4.97379915e-14 C40.3261761,21.1151111 42.668,35.4484444 42.668,43 C42.668,50.5515556 40.864,58.3010591 37.256,66.2485107" id="Path-27"></path>
                    <path d="M229.3512,4.26325641e-14 C232.980825,13.3258678 234.955441,22.7978678 235.275047,28.416 C236.38872,47.9924382 235.412507,61.1972148 235.275047,66.1937073" id="Path-27" transform="translate(232.576600, 33.096854) scale(-1, 1) translate(-232.576600, -33.096854) "></path>
                    <path d="M267.515,117.5 L312.634053,117.5" id="Path-28"></path>
                </g>
            </g>
            <path d="M192.833697,368.096838 C196.680241,361.091923 199.292631,357.544283 200.670869,357.453917 C203.492801,357.268893 206.657946,360.437721 210.166303,366.960401" id="Path-13" stroke="#000000" stroke-width="14" transform="translate(201.500000, 362.771549) rotate(-177.000000) translate(-201.500000, -362.771549) "></path>
            <path d="M190.3955,261.681914 C188.131833,261.681914 184.808833,260.34858 180.4265,257.681914 L180.4265,240.640914 C184.142167,243.974247 187.465167,245.640914 190.3955,245.640914 C194.791,245.640914 207.1355,248.468914 216.5255,239.087914 L228.5735,251.143914 C215.9625,263.737914 193.791,261.681914 190.3955,261.681914 Z" id="Path" fill="#000000" fill-rule="nonzero" transform="translate(204.500000, 250.447194) scale(1, -1) translate(-204.500000, -250.447194) "></path>
            <path d="M242,195 C245.675419,195.666667 249.342086,196 253,196 C256.657914,196 259.991247,195.666667 263,195" id="Path-29" stroke="#000000" stroke-width="14"></path>
            <path d="M139,196 C142.675419,196.666667 146.342086,197 150,197 C153.657914,197 156.991247,196.666667 160,196" id="Path-29" stroke="#000000" stroke-width="14"></path>
        </g>
    </g>
</svg>