<?xml version="1.0" encoding="UTF-8"?>
<svg width="424px" height="538px" viewBox="0 0 424 538" version="1.1" xmlns="http://www.w3.org/2000/svg" xmlns:xlink="http://www.w3.org/1999/xlink">
    <!-- Generator: Sketch 53.2 (72643) - https://sketchapp.com -->
    <title>06_segmentace_EU_skepticky_reformista</title>
    <desc>Created with Sketch.</desc>
    <g id="06_segmentace_EU_skepticky_reformista" stroke="none" stroke-width="1" fill="none" fill-rule="evenodd">
        <g id="skeptireforma" transform="translate(9.000000, 46.000000)">
            <g>
                <path d="M322.798,331.935 L261.025,323.415 L203.001,356.9 L144.977,323.756 L83.204,332.276 C49.48,336.783 14.325,382.854 14.154,416.884 L14.154,493.5 L390,493.5 L393.814279,400.344 C393.814279,366.194 356.65,336.46 322.798,331.935 Z" id="Path" fill="#EDEBEB" fill-rule="nonzero"></path>
                <path d="M20.073,497.4875 L3.032,497.4875 C1.032,475.386611 0.032,458.810944 0.032,447.7605 C0.032,437.983167 0.365333333,423.317167 1.032,403.7625 C1.032,365.5055 35.626,332.8305 73.559,327.7515 L134.838,319.6145 L134.838,279.4765 L151.879,284.4765 L151.879,327.0785 C151.879,331.3475 148.718,334.9595 144.483,335.5225 L75.809,344.6395 C46.32,348.5845 18.073,373.9925 18.073,403.7545 C17.4063333,424.050441 17.073,439.272396 17.073,449.420366 C17.073,460.101952 18.073,476.124329 20.073,497.4875 Z" id="Path" fill="#000000" fill-rule="nonzero"></path>
                <polygon id="Path" fill="#FEDAC6" fill-rule="nonzero" points="261.025 323.756 254.123 322.818 254.123 263.176 151.879 263.176 151.879 322.818 144.977 323.756 203.001 356.9"></polygon>
                <g id="Group" transform="translate(134.000000, 322.000000)" fill="#EAEAEA" fill-rule="nonzero">
                    <polygon id="Path" points="17.879 68.982 69.001 34.9 17.879 0.818 0.838 0.818"></polygon>
                    <polygon id="Path" points="69.001 34.9 120.123 68.982 137.164 0.818 120.123 0.818"></polygon>
                </g>
                <polyline id="Path" fill="#1A3881" fill-rule="nonzero" points="177.44 493.227 185.96 399.502 177.44 373.941 203.001 356.9 228.562 373.941 220.042 399.502 228.562 493.227"></polyline>
                <path d="M254.123,310.379 L254.123,263.176 L151.879,263.176 L151.879,310.379 C190.22,326.993 215.782,326.993 254.123,310.379 Z" id="Path" fill="#F5C4B0" fill-rule="nonzero"></path>
                <path d="M14.154,399.502 L14.154,493.227 L58.154,493.227 L58.154,340.541 C30.9512537,352.708 14.1759471,375.176 14.154,399.502 Z" id="Path" fill-opacity="0.15" fill="#000000" fill-rule="nonzero"></path>
                <path d="M274.164,493.5 L257.123,493.5 C255.123,471.399111 254.123,454.823444 254.123,443.773 C254.123,433.995667 254.456333,419.329667 255.123,399.775 C255.123,361.518 289.717,328.843 327.65,323.764 L388.929,315.627 L388.929,280.489 L405.97,280.489 L405.97,323.091 C405.97,327.36 402.809,330.972 398.574,331.535 L329.9,340.652 C300.411,344.597 272.164,370.005 272.164,399.767 C271.497333,420.062941 271.164,435.284896 271.164,445.432866 C271.164,456.114452 272.164,472.136829 274.164,493.5 Z" id="Path" fill="#000000" fill-rule="nonzero" transform="translate(330.046500, 386.994500) scale(-1, 1) translate(-330.046500, -386.994500) "></path>
                <path d="M151.879,399.502 C150.84,399.502 149.8,399.315 148.803,398.931 C146.221,397.934 144.287,395.736 143.614,393.052 L126.573,324.889 L143.103,320.765 L157.213,377.196 L198.273,349.82 L207.722,363.998 L156.6,398.08 C155.184,399.025 153.531,399.502 151.879,399.502 Z" id="Path" fill="#000000" fill-rule="nonzero"></path>
                <path d="M203.001,365.42 C201.544,365.42 200.087,365.045 198.775,364.295 L139.132,330.213 L147.584,315.422 L203.001,347.092 L258.418,315.422 L266.87,330.213 L207.227,364.295 C205.915,365.046 204.458,365.42 203.001,365.42 Z" id="Path" fill="#000000" fill-rule="nonzero"></path>
                <path d="M254.123,399.502 C252.47,399.502 250.817,399.016 249.394,398.071 L198.272,363.989 L207.721,349.811 L248.781,377.187 L262.891,320.756 L279.412,324.88 L262.371,393.043 C261.706,395.727 259.764,397.925 257.182,398.922 C256.202,399.315 255.163,399.502 254.123,399.502 Z" id="Path" fill="#000000" fill-rule="nonzero"></path>
                <path d="M185.926,494.002 L168.953,492.451 L177.312,400.507 L169.354,376.633 L185.517,371.24 L194.037,396.801 C194.403,397.917 194.548,399.102 194.437,400.269 L185.926,494.002 Z" id="Path" fill="#000000" fill-rule="nonzero"></path>
                <path d="M220.067,494.002 L211.547,400.277 C211.445,399.101 211.581,397.925 211.956,396.809 L220.476,371.248 L236.631,376.641 L228.673,400.515 L237.032,492.459 L220.067,494.002 Z" id="Path" fill="#000000" fill-rule="nonzero"></path>
                <rect id="Rectangle" fill="#000000" fill-rule="nonzero" x="185.994" y="390.982" width="34.082" height="17.041"></rect>
                <g id="026-man" transform="translate(66.000000, 0.000000)">
                    <path d="M8.996,145.067 C8.996,159.207 20.456,170.667 34.596,170.667 L43.129,170.667 L43.129,119.467 L34.596,119.467 C20.456,119.467 8.996,130.927 8.996,145.067 Z" id="Path" fill="#F5C4B0" fill-rule="nonzero"></path>
                    <path d="M73.132,86 L82.1857213,62 C98.1380907,64.6500234 119.860747,72.3773062 136.9105,72.5335 C156.095977,72.7092593 174.235091,64.9819766 192.185721,62 C200.87,72.5335 204.264,99.525 218.319,110.08 L230.863,120.747 L230.863,119.467 C242.076,70.69 211.629,22.059 162.852,10.838 C156.222,9.311 149.438,8.543 142.628,8.534 L131.364,8.534 C81.316,8.577 40.774,49.195 40.825,99.243 C40.834,106.053 41.602,112.837 43.129,119.467 L43.129,128 L60.196,110.933 C68.541,102.929 68.584,96.633 73.132,86 Z" id="Path" fill="#745B4B" fill-rule="nonzero"></path>
                    <path d="M218.318,110.08 C204.264,99.524 193.759,84.941 188.195,68.267 C154.292,73.899 119.698,73.899 85.795,68.267 L79.736,82.688 C75.188,93.321 68.54,102.929 60.195,110.933 L43.129,128 L43.129,216.491 C43.172,236.109 51.662,254.763 66.425,267.691 L92.025,290.134 C117.744,312.577 156.076,312.577 181.796,290.134 L207.396,267.691 C222.159,254.763 230.649,236.109 230.692,216.491 L230.692,120.747 L218.318,110.08 Z" id="SVGCleanerId_0" fill="#F5C4B0" fill-rule="nonzero"></path>
                    <path d="M77.262,87.893 L77.262,79.872 C77.245,60.971 81.29,42.291 89.123,25.088 L92.707,17.067 C54.119,35.26 33.469,77.918 43.128,119.467 L43.128,128 L60.195,110.933 C67.142,104.269 72.91,96.478 77.262,87.893 Z" id="Path" fill="#5D4739" fill-rule="nonzero"></path>
                    <path d="M77.262,203.947 L77.262,87.893 C72.91,96.478 67.141,104.268 60.195,110.933 L43.129,128 L43.129,216.491 C43.172,236.109 51.662,254.763 66.425,267.691 L92.025,290.134 C96.317,293.846 101.045,297.029 106.105,299.606 L87.332,254.635 C80.701,238.558 77.279,221.338 77.262,203.947 Z" id="SVGCleanerId_1" fill="#F5C4B0" fill-rule="nonzero"></path>
                    <path d="M188.196,68.267 C154.293,73.899 119.699,73.899 85.796,68.267 L79.737,82.688 C79.054,84.48 78.116,86.187 77.262,87.893 L77.262,203.946 C77.236,221.516 80.692,238.916 87.417,255.146 L106.19,300.117 C131.099,312.524 161.042,308.574 181.881,290.133 L207.481,267.69 C222.244,254.762 230.734,236.108 230.777,216.49 L230.777,120.746 L218.318,110.079 C204.264,99.524 193.759,84.941 188.196,68.267 Z" id="Path" fill="#F5C4B0" fill-rule="nonzero"></path>
                    <g id="Group" transform="translate(43.000000, 59.000000)" fill="#FEDAC6" fill-rule="nonzero">
                        <path d="M175.318,51.08 C161.264,40.524 150.759,25.941 145.195,9.267 C111.292,14.899 76.698,14.899 42.795,9.267 L36.736,23.688 C32.188,34.321 25.54,43.929 17.195,51.933 L0.129,69 L0.129,157.491 C0.172,177.109 8.662,195.763 23.425,208.691 L49.025,231.134 C74.744,253.577 113.076,253.577 138.796,231.134 L164.396,208.691 C179.159,195.763 187.649,177.109 187.692,157.491 L187.692,61.747 L175.318,51.08 Z" id="SVGCleanerId_0_1_"></path>
                        <path d="M175.318,51.08 C161.264,40.524 157.87,9.267 149.185721,3 C132.341354,5.79820303 113.495606,16.5288177 95.4885,16 C77.2523387,15.4644556 59.8546326,3.63379697 42.796,0.8 L31.617,13.5335 C27.069,24.1665 25.54,43.929 17.195,51.933 L0.129,69 L0.129,157.491 C0.172,177.109 8.662,195.763 23.425,208.691 L49.025,231.134 C74.744,253.577 113.076,253.577 138.796,231.134 L164.396,208.691 C179.159,195.763 187.649,177.109 187.692,157.491 C187.692,142.255778 187.692,129.250278 187.692,118.4745 C187.692,112.327639 221.808,95.8780997 221.808,86.133 C221.808,79.6362669 210.436,71.5076002 187.692,61.747 L175.318,51.08 Z" id="SVGCleanerId_0_2_"></path>
                    </g>
                    <path d="M77.262,203.947 L77.262,87.893 C72.91,96.478 67.141,104.268 60.195,110.933 L43.129,128 L43.129,216.491 C43.172,236.109 51.662,254.763 66.425,267.691 L92.025,290.134 C96.317,293.846 101.045,297.029 106.105,299.606 L87.332,254.635 C80.701,238.558 77.279,221.338 77.262,203.947 Z" id="SVGCleanerId_1_1_" fill="#F5C4B0" fill-rule="nonzero"></path>
                    <path d="M154.062,204.8 L119.929,204.8 C101.079,204.8 85.796,220.083 85.796,238.933 L85.796,284.842 L92.111,290.303 C117.83,312.746 156.162,312.746 181.882,290.303 L188.197,284.842 L188.197,238.933 C188.196,220.083 172.913,204.8 154.062,204.8 L154.062,204.8 Z" id="Path" fill="#D8AD9B" fill-rule="nonzero"></path>
                    <path d="M134.299,204.365 L108.699,195.832 C106.438,195.081 104.594,193.409 103.613,191.233 C102.632,189.057 102.615,186.574 103.553,184.372 L129.153,124.639 L144.837,131.363 L122.889,182.572 L139.691,188.17 L134.299,204.365 Z" id="Path" fill="#000000" fill-rule="nonzero"></path>
                    <path d="M239.396,179.2 L230.863,179.2 L230.863,162.133 L239.396,162.133 C248.808,162.133 256.463,154.479 256.463,145.066 C256.463,135.654 248.809,127.999 239.396,127.999 L230.863,127.999 L230.863,110.932 L239.396,110.932 C258.221,110.932 273.529,126.241 273.529,145.065 C273.529,163.889 258.22,179.2 239.396,179.2 Z" id="Path" fill="#000000" fill-rule="nonzero"></path>
                    <path d="M43.129,179.2 L34.596,179.2 C15.771,179.2 0.463,163.891 0.463,145.067 C0.463,126.243 15.772,110.934 34.596,110.934 L43.129,110.934 L43.129,128 L34.596,128 C25.184,128 17.529,135.654 17.529,145.067 C17.529,154.479 25.183,162.134 34.596,162.134 L43.129,162.134 L43.129,179.2 Z" id="Path" fill="#000000" fill-rule="nonzero"></path>
                    <circle id="Oval" fill="#000000" fill-rule="nonzero" cx="85.796" cy="145.067" r="17.067"></circle>
                    <circle id="Oval" fill="#000000" fill-rule="nonzero" cx="179.662" cy="145.067" r="17.067"></circle>
                    <path d="M137.03,315.733 C118.333,315.682 100.371,308.864 86.376,296.533 L60.793,274.107 C44.196,259.575 34.638,238.574 34.587,216.507 L34.587,120.413 C33.06,113.467 32.283,106.35 32.283,99.25 C32.241,44.578 76.682,0.051 131.355,0 L142.628,0 C150.035,0.009 157.45,0.862 164.678,2.517 C217.644,14.694 250.941,67.447 239.311,120.405 L239.311,216.49 C239.251,238.583 229.702,259.583 213.097,274.116 L187.506,296.55 C173.561,308.838 155.641,315.657 137.03,315.733 Z M131.364,17.067 C86.112,17.11 49.316,53.965 49.359,99.234 C49.359,105.387 50.067,111.548 51.45,117.555 C51.595,118.186 51.663,118.826 51.663,119.466 L51.663,216.49 C51.706,233.633 59.13,249.966 72.049,261.273 L97.649,283.716 C108.546,293.325 122.524,298.632 137.013,298.666 C151.426,298.606 165.378,293.307 176.232,283.733 L201.849,261.273 C214.768,249.966 222.201,233.634 222.244,216.473 L222.244,119.466 C222.244,118.826 222.321,118.186 222.457,117.555 C232.595,73.446 204.964,29.303 160.855,19.157 C154.873,17.775 148.738,17.075 142.611,17.066 L131.364,17.066 L131.364,17.067 Z" id="Shape" fill="#000000" fill-rule="nonzero"></path>
                    <path d="M196.729,281.6 L179.662,281.6 L179.662,238.933 C179.662,224.819 168.176,213.333 154.062,213.333 L119.929,213.333 C105.815,213.333 94.329,224.819 94.329,238.933 L94.329,281.6 L77.262,281.6 L77.262,238.933 C77.262,215.407 96.402,196.266 119.929,196.266 L154.062,196.266 C177.588,196.266 196.729,215.406 196.729,238.933 L196.729,281.6 L196.729,281.6 Z" id="Path" fill="#000000" fill-rule="nonzero"></path>
                    <rect id="Rectangle" fill="#000000" fill-rule="nonzero" x="128.462" y="264.533" width="17.067" height="42.667"></rect>
                    <path d="M43,128 C55.9715763,115.476772 63.8838612,105.810105 66.7368547,99 C73.7385197,82.2870015 65.1857213,68.267 78.977,59.8 C92.3432057,51.5939687 107.417527,71 136.539,71 C165.660473,71 172.7865,50.92825 196.729,59 C208.043949,65.128986 205.016866,86.8510225 211,99 C214.988756,107.099318 221.581089,116.765985 230.777,128" id="Path-18" stroke="#000000" stroke-width="15"></path>
                </g>
                <path d="M190.384,252.61295 L180.415,252.61295 L180.415,235.57195 L190.384,235.57195 C203.65,235.56295 210.837,235.631901 216.514,232.01895 L228.562,244.07495 C216.514,252.61295 208.2,252.60395 190.384,252.61295 Z" id="Path" fill="#000000" fill-rule="nonzero" transform="translate(204.488500, 242.315950) scale(1, -1) translate(-204.488500, -242.315950) "></path>
            </g>
        </g>
    </g>
</svg>