<?xml version="1.0" encoding="UTF-8"?>
<svg width="424px" height="538px" viewBox="0 0 424 538" version="1.1" xmlns="http://www.w3.org/2000/svg" xmlns:xlink="http://www.w3.org/1999/xlink">
    <!-- Generator: Sketch 53.2 (72643) - https://sketchapp.com -->
    <title>07_segmentace_EU_tuzemsky_pragmatik</title>
    <desc>Created with Sketch.</desc>
    <g id="07_segmentace_EU_tuzemsky_pragmatik" stroke="none" stroke-width="1" fill="none" fill-rule="evenodd">
        <g id="tuzemsky_pragmatik" transform="translate(15.000000, 109.000000)">
            <path d="M331.153557,270.827387 L271.932557,263.403387 L268.177557,271.936387 C251.238557,311.334387 205.568557,329.545387 166.170557,312.606387 C147.909557,304.755387 133.359557,290.197387 125.500557,271.936387 L121.745557,263.403387 L62.5245573,270.827387 C36.7365573,274.027387 4.053,301.675387 4.25,327.659387 C6.79309775,361.140108 8.06452397,386.743774 8.06427866,404.470387 C8.06419174,410.750885 8.06419174,419.280552 8.06427866,430.059387 L387.250015,431.053387 L387.25,320.278887 C387.275,294.422887 356.813557,274.018387 331.153557,270.827387 Z" id="Path" fill="#934B88" fill-rule="nonzero"></path>
            <path d="M8.06427866,429.059387 L51.7715573,429.059387 L51.7715573,275.459387 C41.1328963,279.005469 17.5388617,282.800203 10.25,310.053387 C-0.000456375121,348.380026 8.06427866,414.497212 8.06427866,429.059387 Z" id="Path" fill-opacity="0.15" fill="#000000" fill-rule="nonzero"></path>
            <path d="M196.838557,319.125387 C227.882557,319.142387 255.948557,300.642387 268.177557,272.106387 L271.932557,263.573387 L254.865557,261.440387 C246.280557,260.356387 239.863557,253.026387 239.932557,244.373387 L239.932557,199.658387 L154.172557,199.658387 L154.172557,244.287387 C154.240557,252.940387 147.823557,260.270387 139.239557,261.354387 L121.746557,263.487387 L125.501557,272.020387 C137.702557,300.591387 165.777557,319.125387 196.838557,319.125387 Z" id="Path" fill="#FEDAC6" fill-rule="nonzero"></path>
            <path d="M239.505557,246.933387 L239.505557,199.658387 L154.172557,199.658387 L154.172557,246.933387 C186.171557,263.573387 207.505557,263.573387 239.505557,246.933387 Z" id="Path" fill="#F5C4B0" fill-rule="nonzero"></path>
            <path d="M94.8324987,268.053387 L108.808354,265.682368 L121.746557,263.487387 C130.929497,287.142031 138.668978,301.744031 144.965,307.293387 C163.293498,323.448246 190.703462,324.535387 201.602351,324.535387 C212.935648,324.535387 229.881687,324.761717 247.244,307.293387 C252.535851,301.969223 258.663037,287.367223 265.625557,263.487387 L304.113057,268.053387 C285.565211,315.038025 272.275025,344.244692 264.2425,355.673387 C252.910167,371.797056 231.633849,384.97189 200.413546,395.197887 C169.687803,381.387224 148.364955,366.467057 136.445,350.437387 C124.525045,334.407716 110.654212,306.946383 94.8324987,268.053387 Z" id="Path-14" stroke="#000000" stroke-width="15" fill="#CEBBB1"></path>
            <path d="M180.25,1.82038691 C228.40512,-2.76515412 261.071787,1.31251255 278.25,14.0533869 C304.01732,33.1646984 315.268279,56.0533869 326.25,78.6193869 C337.231721,101.185387 347.968721,157.538637 337.25,199.658387 C330.104186,227.73822 311.514038,241.778137 281.479557,241.778137 L191.531279,225.053387 C162.069301,238.875065 130.780301,244.449982 97.6642787,241.778137 C77.458451,240.147904 61.7271882,236.053387 51.7715573,208.192387 C41.8159265,180.331387 40.7715573,150.286887 57.25,91.5533869 C64.568942,65.4667543 82.3759098,31.6716728 112.196557,10.0533869 C122.156372,2.83308325 144.840853,0.0887499121 180.25,1.82038691 Z" id="Path-21" stroke="#000000" stroke-width="15" fill="#635353"></path>
            <path d="M177.207541,33.0533869 C162.075232,39.8355286 150.756051,46.168862 143.25,52.0533869 C135.743949,57.9379119 125.378648,68.6045785 112.154099,84.0533869 C103.979193,120.864948 99.1492531,148.864948 97.6642787,168.053387 C96.1793042,187.241826 98.0270585,197.776826 103.207541,199.658387 C113.468068,208.877638 124.767407,216.342638 137.105557,222.053387 C149.443708,227.764136 167.571462,233.919553 191.48882,240.519637 C206.4276,237.287991 219.588245,233.626741 230.970755,229.535887 C242.353265,225.445033 259.175379,218.330533 281.437099,208.192387 C290.174773,205.043311 295.050983,193.396978 296.065731,173.253387 C297.080478,153.109796 294.288798,123.376462 287.690688,84.0533869 C262.859778,82.7128349 243.953134,79.0461682 230.970755,73.0533869 C217.988376,67.0606056 200.067305,53.7272723 177.207541,33.0533869 Z" id="Path-20" fill="#FEDAC6"></path>
            <path d="M172.233946,207.200984 C176.223463,195.819818 180.579598,190.129234 185.302351,190.129234 C190.025103,190.129234 194.791769,190.462568 199.602351,191.129234 C205.821921,188.909533 211.900389,187.969483 217.837755,188.309083 C223.77512,188.648683 228.152787,193.351326 230.970755,202.417012 C222.041023,206.561196 213.080845,209.275674 204.090221,210.560445 C195.099596,211.845217 184.480838,210.725396 172.233946,207.200984 Z" id="Path-12" stroke="#000000" stroke-width="14" fill="#934B88"></path>
            <path d="M187.747307,173.253387 L170.680307,156.186387 C167.343307,152.849387 167.343307,147.456387 170.680307,144.120387 L187.747307,127.053387 L199.813307,139.119387 L188.779307,150.153387 L199.813307,161.187387 L187.747307,173.253387 Z" id="Path" fill="#000000" fill-rule="nonzero"></path>
            <circle id="Oval" fill="#000000" fill-rule="nonzero" cx="240.505557" cy="115.120387" r="17.067"></circle>
            <circle id="Oval" fill="#000000" fill-rule="nonzero" cx="146.172557" cy="115.120387" r="17.067"></circle>
            <path d="M108.25,85.0533869 C97.2897125,130.684763 93.0442316,164.408451 95.5135573,186.224451 C97.982883,208.040451 120.904227,222.885096 164.277589,230.758387 C177.403834,238.104887 187.28002,241.778137 193.906147,241.778137 C200.532273,241.778137 210.322754,238.104887 223.277589,230.758387 C266.247961,225.62172 289.948284,210.777075 294.378557,186.224451 C298.002986,166.137831 295.787849,132.414143 287.733147,85.0533869 C258.574977,82.7625549 237.089791,78.4292216 223.277589,72.0533869 C209.465388,65.6775522 194.122858,53.0108856 177.25,34.0533869 C158.25024,41.8937891 144.583574,48.8937891 136.25,55.0533869 C127.916426,61.2129847 118.583093,71.2129847 108.25,85.0533869 Z" id="Path-19" stroke="#000000" stroke-width="15"></path>
            <path d="M154.172557,240.519637 C153.257086,248.357036 151.616234,253.527286 149.25,256.030387 C146.883766,258.533488 141.883766,260.38821 134.25,261.594552 C95.3243322,263.985948 67.8315179,266.80556 51.7715573,270.053387 C27.6816164,274.925128 16.25,283.053387 6.25,307.053387 C-0.416666667,323.053387 -1.75,364.38672 2.25,431.053387" id="Path-22" stroke="#000000" stroke-width="15"></path>
            <path d="M165.25,291.053387 C182.658066,298.38672 194.775516,302.053387 201.602351,302.053387 C208.429185,302.053387 218.218653,298.38672 230.970755,291.053387" id="Path-31" stroke="#000000" stroke-width="14"></path>
            <path d="M393.678115,240.519637 C392.762644,248.357036 391.121791,253.527286 388.755557,256.030387 C386.389324,258.533488 381.389324,260.38821 373.755557,261.594552 C334.829889,263.985948 307.337075,266.80556 291.277115,270.053387 C267.187174,274.925128 255.755557,283.053387 245.755557,307.053387 C239.088891,323.053387 237.755557,364.38672 241.755557,431.053387" id="Path-22" stroke="#000000" stroke-width="15" transform="translate(316.591836, 335.786512) scale(-1, 1) translate(-316.591836, -335.786512) "></path>
        </g>
    </g>
</svg>